<?xml version="1.0" encoding="UTF-8"?>
<svg version="1.1" xmlns="http://www.w3.org/2000/svg" width="902" height="312">
<path d="M0 0 C2.18065367 0.00535249 4.36110066 0.00002922 6.54174805 -0.00634766 C17.28196735 -0.01313952 27.72513553 0.34026668 38.18823242 2.94287109 C38.91703613 3.12100342 39.64583984 3.29913574 40.39672852 3.48266602 C64.48292221 9.50023632 86.13045423 20.93732778 104.31323242 37.88037109 C106.18740491 39.61037647 108.06630885 41.23697327 110.06323242 42.81787109 C113.34115701 45.63841085 116.02922557 48.78156656 118.75073242 52.13037109 C119.95046831 49.90229015 120.86428068 47.78133361 121.64916992 45.36865234 C126.47108344 31.19359453 134.15055292 18.26882807 147.75073242 11.13037109 C151.36735836 9.62302906 155.03571397 8.36871058 158.75073242 7.13037109 C159.49838867 6.79536591 160.24604492 6.46036072 161.01635742 6.11520386 C170.85375705 2.5720931 183.16184644 3.98044731 193.50073242 3.99755859 C194.97176123 3.99688208 196.44278993 3.99590919 197.91381836 3.99465942 C200.97274863 3.99319877 204.03164938 3.99528376 207.09057617 4 C210.96973014 4.00569626 214.84881487 4.0024084 218.72796631 3.99642754 C221.75838727 3.99277739 224.78879238 3.99398073 227.81921387 3.99655533 C229.24784351 3.99721235 230.6764747 3.99644021 232.10510254 3.99407578 C244.5456368 3.97799382 256.97624454 4.09571312 269.12573242 7.00537109 C270.21821289 7.24707031 270.21821289 7.24707031 271.33276367 7.49365234 C288.95130915 11.54497564 306.07592485 20.44300844 319.75073242 32.13037109 C323.25496886 29.39535729 326.18213569 26.69660321 329.00073242 23.25537109 C332.95452352 18.60747 337.62636422 15.38459206 342.75073242 12.13037109 C343.48678711 11.61345703 344.2228418 11.09654297 344.98120117 10.56396484 C348.83471615 8.56926809 352.6962916 7.81729558 356.93823242 7.00537109 C358.28087158 6.74771973 358.28087158 6.74771973 359.65063477 6.48486328 C374.00885972 3.86873526 388.38887354 4.04862945 402.93823242 4.00537109 C403.65730774 4.00251099 404.37638306 3.99965088 405.11724854 3.9967041 C430.98961592 3.92438338 430.98961592 3.92438338 441.39135742 6.60302734 C444.42932709 7.28204374 447.47413005 7.62429187 450.56323242 8.00537109 C470.3433703 10.84916088 487.92461008 20.90921669 501.75073242 35.13037109 C502.4597168 35.75943359 503.16870117 36.38849609 503.89916992 37.03662109 C510.75112891 43.21150904 515.09465951 51.26847749 519.75073242 59.13037109 C523.07683479 55.89714418 526.07019608 52.58576153 528.93823242 48.94287109 C545.36749929 28.74517503 566.05705001 15.84988815 590.75073242 8.13037109 C591.52803711 7.86224609 592.3053418 7.59412109 593.10620117 7.31787109 C604.53160925 3.53967574 616.5283461 3.96808177 628.43261719 4 C630.81280867 4.00537014 633.19281218 4.00001713 635.57299805 3.99365234 C646.79472207 3.98714848 657.6531955 4.37911345 668.62573242 6.94287109 C669.39892822 7.12172852 670.17212402 7.30058594 670.96875 7.48486328 C673.23323223 8.01889722 675.49261465 8.57009398 677.75073242 9.13037109 C678.91217773 9.41783203 680.07362305 9.70529297 681.27026367 10.00146484 C692.16388817 13.02374044 702.63014317 18.4465805 711.75073242 25.13037109 C711.75073242 25.79037109 711.75073242 26.45037109 711.75073242 27.13037109 C712.29084961 27.34822266 712.8309668 27.56607422 713.38745117 27.79052734 C726.03711165 34.96215304 734.82874919 49.59320316 738.75073242 63.13037109 C742.44446037 79.42492983 740.62422177 96.99697187 731.80151367 111.22802734 C730.6892474 113.24168412 730.02833682 114.84366368 729.75073242 117.13037109 C731.80407497 119.50454842 733.98623484 121.47508745 736.36401367 123.51318359 C747.53897879 133.73763444 753.58675824 149.25474959 754.75073242 164.13037109 C755.30013388 177.89627291 755.06838177 191.53447907 752.75073242 205.13037109 C752.57928711 206.30728516 752.4078418 207.48419922 752.23120117 208.69677734 C748.76917135 229.40194923 739.60060281 249.36509309 725.75073242 265.13037109 C725.31825195 265.62311523 724.88577148 266.11585938 724.44018555 266.62353516 C719.24338777 272.50910908 714.04414494 278.38856028 707.75073242 283.13037109 C707.1706543 283.58283203 706.59057617 284.03529297 705.99291992 284.50146484 C676.50602609 305.83609979 638.78192443 309.23341839 603.75073242 304.13037109 C572.38250488 298.97141682 545.33388738 280.96347823 525.75073242 256.13037109 C525.09073242 255.47037109 524.43073242 254.81037109 523.75073242 254.13037109 C520.69979899 257.64356717 517.94906557 261.23126951 515.31323242 265.06787109 C514.12941633 266.75795747 512.94216866 268.44564791 511.75073242 270.13037109 C511.3253418 270.74009766 510.89995117 271.34982422 510.46166992 271.97802734 C493.79989583 293.59744587 462.13310222 300.7149775 436.75073242 304.13037109 C428.75353752 304.96716526 420.79594437 305.31091795 412.75854492 305.36865234 C411.65131073 305.37672409 410.54407654 305.38479584 409.40328979 305.39311218 C407.07217931 305.40684701 404.7410496 305.41761577 402.40991211 305.42553711 C400.07163416 305.43700559 397.73338131 305.45737485 395.39526367 305.48706055 C371.0353553 305.79500007 345.86017208 305.08913649 327.12573242 287.69287109 C326.34198242 286.84724609 325.55823242 286.00162109 324.75073242 285.13037109 C324.26862305 284.66501953 323.78651367 284.19966797 323.28979492 283.72021484 C306.01363457 265.8740289 309.55280409 231.50757879 309.83740234 208.8828125 C309.94425976 206.16839082 309.94425976 206.16839082 308.75073242 204.13037109 C304.71559731 205.22094815 301.43384981 206.86896403 297.86791992 208.98193359 C291.5482534 212.46269355 285.17320829 214.21336845 278.18823242 215.88037109 C277.03387695 216.17041016 275.87952148 216.46044922 274.69018555 216.75927734 C265.18021801 219.12193519 255.74898169 221.16059792 246.00073242 222.19287109 C238.83431636 222.90070624 238.83431636 222.90070624 231.75073242 224.13037109 C230.17223671 227.28736252 230.49329527 230.70874322 230.39135742 234.18115234 C230.32733367 235.84720984 230.26219111 237.51322464 230.19604492 239.17919922 C230.09578173 241.79407309 230.00170996 244.40841951 229.92749023 247.02416992 C229.36051695 266.27733081 224.49320526 279.08662988 210.75073242 293.13037109 C198.53328544 303.39450076 184.60596698 305.88910611 168.84448242 304.88037109 C161.02098172 303.98989134 153.93809965 302.35619733 146.75073242 299.13037109 C145.98374023 298.79392578 145.21674805 298.45748047 144.42651367 298.11083984 C131.34464655 291.64981298 124.43740893 280.27109892 119.87573242 266.88037109 C119.50448242 265.64287109 119.13323242 264.40537109 118.75073242 263.13037109 C115.30302728 265.23263033 112.46446822 267.31950174 109.68823242 270.25537109 C91.86862466 288.5038972 67.42829507 299.8313509 42.75073242 305.13037109 C42.11071289 305.27845215 41.47069336 305.4265332 40.8112793 305.57910156 C7.18225654 313.1546016 -31.12361852 308.56888511 -62.24926758 294.13037109 C-62.85593262 293.85354492 -63.46259766 293.57671875 -64.08764648 293.29150391 C-74.3133223 288.58448717 -83.29963463 282.9393486 -92.24926758 276.13037109 C-93.03817383 275.57994141 -93.82708008 275.02951172 -94.63989258 274.46240234 C-95.4365332 273.80304688 -95.4365332 273.80304688 -96.24926758 273.13037109 C-96.24926758 272.47037109 -96.24926758 271.81037109 -96.24926758 271.13037109 C-97.1077832 270.77458984 -97.1077832 270.77458984 -97.98364258 270.41162109 C-100.73719678 268.85443872 -102.41722391 267.00544312 -104.49926758 264.63037109 C-105.20567383 263.83630859 -105.91208008 263.04224609 -106.63989258 262.22412109 C-108.24926758 260.13037109 -108.24926758 260.13037109 -108.24926758 258.13037109 C-109.23926758 257.80037109 -110.22926758 257.47037109 -111.24926758 257.13037109 C-122.88010498 243.68907315 -130.53441339 224.06268475 -135.24926758 207.13037109 C-135.43038086 206.49083496 -135.61149414 205.85129883 -135.7980957 205.19238281 C-147.85094614 162.11499139 -143.98391152 113.20934852 -122.48535156 73.63916016 C-115.85133517 61.89978832 -107.58394509 51.80228407 -98.24926758 42.13037109 C-97.46036133 41.27830078 -96.67145508 40.42623047 -95.85864258 39.54833984 C-86.82224977 30.04815866 -75.99912052 21.9761657 -64.24926758 16.13037109 C-63.17032227 15.56705078 -62.09137695 15.00373047 -60.97973633 14.42333984 C-41.25596424 4.20411947 -22.09837489 -0.06443397 0 0 Z M-61.24926758 39.13037109 C-62.15805664 39.63955078 -63.0668457 40.14873047 -64.00317383 40.67333984 C-64.74438477 41.15416016 -65.4855957 41.63498047 -66.24926758 42.13037109 C-66.24926758 42.79037109 -66.24926758 43.45037109 -66.24926758 44.13037109 C-67.30887695 44.47068359 -67.30887695 44.47068359 -68.38989258 44.81787109 C-71.81932958 46.3920389 -74.29186457 48.56627525 -76.99926758 51.13037109 C-77.51714844 51.61368896 -78.0350293 52.09700684 -78.56860352 52.5949707 C-83.39353131 57.15638321 -88.17787212 61.87662595 -92.24926758 67.13037109 C-92.24926758 67.79037109 -92.24926758 68.45037109 -92.24926758 69.13037109 C-92.90926758 69.13037109 -93.56926758 69.13037109 -94.24926758 69.13037109 C-95.23561483 70.52486204 -96.21060156 71.92901644 -97.12133789 73.37402344 C-98.20763806 75.06554798 -99.40692432 76.68285779 -100.60864258 78.29443359 C-120.6675485 106.29278508 -125.69762612 144.80313066 -120.56176758 178.00537109 C-118.92129117 187.69869353 -116.71906294 196.92574271 -113.24926758 206.13037109 C-112.98742676 206.84161133 -112.72558594 207.55285156 -112.45581055 208.28564453 C-109.03979787 217.45756868 -105.24579766 225.32798942 -99.24926758 233.13037109 C-98.15353011 234.74703293 -97.06975797 236.37188206 -95.99926758 238.00537109 C-93.277349 242.17989341 -93.277349 242.17989341 -90.24926758 246.13037109 C-89.58926758 246.13037109 -88.92926758 246.13037109 -88.24926758 246.13037109 C-87.97856445 246.72462891 -87.70786133 247.31888672 -87.42895508 247.93115234 C-78.44081451 264.68718922 -54.32335376 274.8193793 -37.24926758 281.13037109 C-36.17032227 281.53255859 -35.09137695 281.93474609 -33.97973633 282.34912109 C-6.74542859 291.57871961 25.00873688 290.40104558 51.75073242 280.13037109 C52.41266602 279.87771484 53.07459961 279.62505859 53.7565918 279.36474609 C84.10824234 267.51453229 108.07052839 244.2968645 121.46142578 214.58886719 C133.0428531 187.89305647 137.06207635 158.85815102 131.75073242 130.13037109 C131.42073242 129.80037109 131.09073242 129.47037109 130.75073242 129.13037109 C130.25843627 126.77861901 129.80669716 124.43085359 129.37573242 122.06787109 C128.30283419 116.48710144 127.00432836 111.3443726 124.75073242 106.13037109 C124.42588867 105.27830078 124.10104492 104.42623047 123.76635742 103.54833984 C116.54866816 85.08390874 105.53050047 69.2833513 91.75073242 55.13037109 C90.93217773 54.27443359 90.11362305 53.41849609 89.27026367 52.53662109 C65.50450847 29.24986561 28.86528047 20.40383909 -3.54541016 20.71362305 C-23.94013834 21.43038522 -44.28494013 27.74243643 -61.24926758 39.13037109 Z M557.75073242 49.13037109 C556.8922168 49.84451172 556.03370117 50.55865234 555.14916992 51.29443359 C544.81948414 60.22742947 536.09943413 71.01322536 529.75073242 83.13037109 C529.45102539 83.6946582 529.15131836 84.25894531 528.8425293 84.84033203 C519.53733761 102.6089933 513.64034873 122.15189262 511.75073242 142.13037109 C511.68208984 142.84837891 511.61344727 143.56638672 511.54272461 144.30615234 C510.71092662 154.47360491 512.61848982 161.3448819 517.75073242 170.13037109 C522.43930761 180.06568518 525.17898253 190.67677912 526.68041992 201.52490234 C526.83897461 202.66314453 526.9975293 203.80138672 527.16088867 204.97412109 C527.46395096 207.23562791 527.74623301 209.50004632 528.00463867 211.76708984 C529.02312112 219.48513117 531.3409128 224.75712479 535.75073242 231.13037109 C536.64211914 232.6134375 536.64211914 232.6134375 537.55151367 234.12646484 C543.67068614 244.00884932 550.59669169 252.90776803 559.75073242 260.13037109 C560.62213867 260.83806641 561.49354492 261.54576172 562.39135742 262.27490234 C586.26497454 281.00994679 613.7902988 287.16344571 643.75073242 285.13037109 C668.20811236 281.93128922 692.93675691 271.66753987 708.75073242 252.13037109 C709.91562412 250.85791056 711.08231916 249.58709878 712.25073242 248.31787109 C719.60439563 239.84302157 724.13826248 230.69560854 727.75073242 220.13037109 C727.99734619 219.43508301 728.24395996 218.73979492 728.49804688 218.0234375 C735.24544721 198.59878641 738.16965823 172.42594377 730.30151367 153.09912109 C725.97075429 144.80849861 720.46838033 138.51272439 711.75073242 134.88037109 C695.75866301 130.88235374 678.07785676 131.96355101 661.69454956 131.78933716 C659.91196805 131.76686077 658.12947218 131.73580178 656.34719849 131.69577026 C640.90478068 131.30326777 640.90478068 131.30326777 627.83618164 138.90356445 C622.51857481 144.48565958 621.38238227 150.13414921 621.56323242 157.67333984 C622.02460855 163.71928948 623.83371873 168.51030366 627.75073242 173.13037109 C635.41336498 179.05294751 643.13089827 179.206741 652.46557617 179.07177734 C653.30427246 179.06235107 654.14296875 179.0529248 655.00708008 179.04321289 C656.68026308 179.01844275 658.35330398 178.97756271 660.02563477 178.91870117 C665.04006129 178.8210578 668.40959794 179.30897443 672.75073242 182.13037109 C675.42163439 187.47217503 674.34928087 196.39002878 673.10229492 202.09912109 C669.81346411 211.20665256 663.83629562 216.02328841 655.27807617 220.08740234 C640.5473028 226.16640774 624.74102051 224.89848692 610.11010742 219.12646484 C596.37665539 213.32840149 587.71152425 203.7258611 581.81323242 190.00537109 C573.53131493 168.38924668 572.65453204 142.90282448 581.21166992 121.19677734 C587.40478495 107.34872064 596.22765041 96.30083793 609.75073242 89.13037109 C610.53319336 88.69595703 611.3156543 88.26154297 612.12182617 87.81396484 C623.33799333 82.66350089 639.1267667 83.62533757 650.75073242 87.13037109 C658.73923958 90.2516568 665.30437968 95.83876381 671.43432617 101.75537109 C676.74112354 106.80660032 683.61436645 107.15593002 690.62573242 107.50537109 C698.86005926 107.29789199 707.42221044 104.68772671 713.34838867 98.79052734 C719.53328948 91.46856957 719.74258118 83.50174582 719.00366211 74.22851562 C717.50715357 61.81442842 709.54108621 52.20035692 700.50463867 44.12255859 C698.63704383 42.67362537 696.76097997 41.37174191 694.75073242 40.13037109 C694.16807617 39.76814453 693.58541992 39.40591797 692.98510742 39.03271484 C691.26858819 38.01594782 689.50933543 37.07247985 687.75073242 36.13037109 C686.62538086 35.50775391 685.5000293 34.88513672 684.34057617 34.24365234 C678.75787252 31.46577911 672.82360903 30.01302639 666.81323242 28.44287109 C665.6846582 28.13542969 664.55608398 27.82798828 663.39331055 27.51123047 C657.17511952 25.85811046 651.17058532 24.56750783 644.75073242 24.13037109 C643.97818115 24.07115479 643.20562988 24.01193848 642.40966797 23.95092773 C610.80149199 21.70344775 582.22617874 28.18928526 557.75073242 49.13037109 Z M176.75073242 27.13037109 C175.83549805 27.20513672 174.92026367 27.27990234 173.97729492 27.35693359 C163.22792999 28.26108578 155.34924331 29.22439887 147.56323242 37.06787109 C136.81240792 49.93084186 135.53458904 68.05148153 136.75073242 84.13037109 C137.29489885 87.42145984 138.02922731 90.56583313 138.89135742 93.78662109 C139.90472869 97.72955657 140.62591772 101.68243172 141.31323242 105.69287109 C141.43931885 106.42546143 141.56540527 107.15805176 141.6953125 107.9128418 C141.93935556 109.34008508 142.18199655 110.76756896 142.4230957 112.1953125 C142.70244888 113.8452032 142.98946399 115.49379359 143.27807617 117.14208984 C143.79461776 120.13461591 144.27763261 123.13064405 144.75073242 126.13037109 C144.87480469 126.90429199 144.99887695 127.67821289 145.12670898 128.47558594 C145.55435614 131.17138057 145.96630026 133.86925394 146.37573242 136.56787109 C146.51108398 137.41381836 146.64643555 138.25976562 146.78588867 139.13134766 C148.51577235 150.8080625 147.75081735 162.20537116 146.37573242 173.88037109 C146.2494043 175.03408203 146.12307617 176.18779297 145.99291992 177.37646484 C145.18496253 184.4622512 144.05309 191.318001 142.19018555 198.20166016 C137.29004724 216.41987864 134.62925561 251.29072159 143.75073242 268.13037109 C144.46229492 269.46068359 144.46229492 269.46068359 145.18823242 270.81787109 C149.74518635 277.56216291 156.10350719 281.15865337 163.9543457 282.75366211 C175.47356061 284.69619201 186.52027143 284.2442894 196.43823242 277.25537109 C197.57347194 276.24765848 198.68143939 275.20780595 199.75073242 274.13037109 C200.67885742 273.24349609 201.60698242 272.35662109 202.56323242 271.44287109 C210.2772059 259.76171125 208.97514718 243.87168196 209.22753906 230.40869141 C209.26753859 228.36512297 209.31895947 226.3220793 209.37182617 224.27880859 C209.39688232 223.07401855 209.42193848 221.86922852 209.44775391 220.62792969 C209.94075776 214.9367345 210.84979787 210.16868882 215.25073242 206.31787109 C219.90491183 202.6077779 223.92118351 201.74009432 229.75073242 201.13037109 C231.05010742 200.98341797 232.34948242 200.83646484 233.68823242 200.68505859 C235.94004354 200.43387265 238.19209733 200.1857169 240.44482422 199.94287109 C265.17427861 197.26420622 290.59792766 192.41658895 309.75073242 175.13037109 C309.75073242 174.47037109 309.75073242 173.81037109 309.75073242 173.13037109 C310.74073242 172.80037109 311.73073242 172.47037109 312.75073242 172.13037109 C324.12142513 156.22594803 330.03494619 135.45659944 330.75073242 116.13037109 C330.80358398 114.84775391 330.85643555 113.56513672 330.91088867 112.24365234 C331.48870725 91.973285 324.93424279 69.50118978 311.50073242 53.94287109 C304.72127366 46.82612582 297.67688319 41.3474197 288.93823242 36.88037109 C288.32326904 36.56310059 287.70830566 36.24583008 287.07470703 35.91894531 C276.44704428 30.73784061 265.51630397 28.49971357 253.81323242 27.44287109 C252.6537207 27.32621094 251.49420898 27.20955078 250.29956055 27.08935547 C238.94084989 25.97179472 227.54713432 24.9310084 216.12573242 24.94287109 C215.26238281 24.94367676 214.3990332 24.94448242 213.50952148 24.9453125 C201.22449597 25.05526973 188.98484936 26.07829716 176.75073242 27.13037109 Z M378.75073242 27.13037109 C376.34429233 27.24929172 373.93957757 27.30876252 371.53100586 27.36914062 C359.94041685 27.69874118 351.2215357 28.96781516 342.50854492 37.20458984 C338.15230772 41.97708971 335.16998266 46.55942992 334.75073242 53.13037109 C335.78833305 56.52828369 335.78833305 56.52828369 337.43823242 60.00537109 C351.27203778 92.41278737 349.70720538 130.89728114 336.99682617 163.36083984 C335.75073242 166.13037109 335.75073242 166.13037109 334.16088867 168.74365234 C327.68110709 179.71081729 330.53189567 198.62427965 330.51049805 210.93237305 C330.50080259 214.29354708 330.46969217 217.65410555 330.43823242 221.01513672 C329.72350631 247.71476683 329.72350631 247.71476683 340.53588867 271.13818359 C351.59996802 281.6523584 365.70196112 282.00258416 380.24291992 282.83349609 C383.75073242 283.13037109 383.75073242 283.13037109 386.94604492 283.73974609 C399.49382526 286.12702681 411.7019468 284.06221714 424.26489258 282.53417969 C428.22204136 282.07577346 432.18076044 281.73111378 436.15039062 281.40356445 C459.39906412 279.42471001 481.68310994 271.40387454 497.45239258 253.67236328 C507.9961215 241.14995037 510.98040267 228.48838416 511.10083008 212.64404297 C511.11724657 211.06934686 511.14434307 209.4947207 511.18286133 207.92041016 C511.63553861 189.27010595 506.29253474 176.05678836 493.83666992 162.13427734 C491.82800635 159.91769159 491.82800635 159.91769159 488.75073242 159.13037109 C488.75073242 158.47037109 488.75073242 157.81037109 488.75073242 157.13037109 C486.52641024 155.80902138 484.29689624 154.49825904 482.06323242 153.19287109 C481.43739258 152.8196875 480.81155273 152.44650391 480.16674805 152.06201172 C476.70628793 150.05095898 473.79562566 148.61761445 469.75073242 148.13037109 C471.43829398 144.03443023 473.49829241 143.1646243 477.47338867 141.31005859 C488.45813392 135.6198475 497.38525865 125.65588328 501.75073242 114.13037109 C507.14943844 97.04172502 505.07969986 80.7284352 497.50073242 64.75537109 C490.62853167 51.90289352 481.93747794 43.61204133 469.12573242 36.94287109 C468.52374023 36.6217334 467.92174805 36.3005957 467.30151367 35.96972656 C455.84367523 30.27903935 443.16567946 28.44742811 430.56323242 27.38037109 C429.88584015 27.31966431 429.20844788 27.25895752 428.51052856 27.19641113 C412.077178 25.73515782 395.10373385 24.66018704 378.75073242 27.13037109 Z " fill="#060606" transform="translate(143.249267578125,3.86962890625)"/>
<path d="M0 0 C0.70108887 0.00418945 1.40217773 0.00837891 2.12451172 0.01269531 C10.46195429 0.1940699 16.49000753 2.26413617 23.125 7.3125 C23.97191406 7.89064453 23.97191406 7.89064453 24.8359375 8.48046875 C31.13629455 13.17134594 34.72532815 20.2688549 36.8046875 27.76171875 C37.89885061 36.47499328 36.40459611 45.23827697 33.125 53.3125 C32.795 54.3025 32.465 55.2925 32.125 56.3125 C32.7540625 55.91417969 33.383125 55.51585937 34.03125 55.10546875 C44.18945544 48.81778436 54.06857943 44.27800244 66.16796875 46.99609375 C77.05063286 50.32020281 83.57797556 55.37985935 89.125 65.3125 C94.0523416 74.95546149 94.2549583 84.33773082 91.15625 94.609375 C87.76505954 103.49840453 81.58464723 110.13106326 73.0390625 114.33984375 C67.25846821 116.49950816 61.16154742 117.13324821 55.06640625 117.8828125 C52.19936879 118.14480349 52.19936879 118.14480349 50.125 119.3125 C51.011875 119.869375 51.89875 120.42625 52.8125 121 C61.13111475 126.59120008 68.3363997 135.48737369 70.59375 145.36328125 C72.28659185 156.19362173 68.98029801 166.52955298 63 175.5 C56.32746881 182.7151768 48.47543393 185.27106057 38.8671875 186.1796875 C27.66150311 186.57738402 20.47167836 183.89278886 12.125 176.3125 C5.99545031 170.16818031 2.9849617 160.62167671 1.125 152.3125 C0.88716797 153.23869141 0.88716797 153.23869141 0.64453125 154.18359375 C-2.43186743 165.35041106 -8.08163865 176.52820709 -18.29296875 182.796875 C-27.99203847 187.05274661 -38.77387738 187.31105487 -48.875 184.3125 C-57.02229789 180.44791857 -63.84698177 173.36853646 -67.875 165.3125 C-69.07169554 161.23671429 -69.09583033 157.2186631 -69.125 153 C-69.145625 152.26587891 -69.16625 151.53175781 -69.1875 150.77539062 C-69.22486924 145.51099903 -68.25178846 142.01453212 -65.875 137.3125 C-65.51019531 136.590625 -65.14539063 135.86875 -64.76953125 135.125 C-60.7367421 128.36971421 -55.12598385 123.94853034 -48.875 119.3125 C-50.56945589 117.61804411 -52.76772082 118.01224826 -55.04321289 117.81958008 C-66.05065611 116.82072636 -75.77267468 113.67327041 -83.4140625 105.23046875 C-89.8479241 96.78387505 -92.86268906 87.93812266 -91.875 77.3125 C-90.120788 67.05833349 -84.75905832 59.23118557 -76.625 52.875 C-69.36157623 47.95975159 -61.82777395 45.31986053 -53.04296875 46.8125 C-44.37805988 48.8108934 -37.43417816 52.64397204 -29.875 57.3125 C-30.32875 56.36375 -30.7825 55.415 -31.25 54.4375 C-35.43464895 44.52127026 -37.02309033 32.23450753 -33.25 22 C-29.13744063 13.17513303 -23.4924021 6.99449527 -14.875 2.3125 C-9.89219804 0.55007533 -5.25273006 -0.04302405 0 0 Z " fill="#010101" transform="translate(148.875,59.6875)"/>
<path d="M0 0 C2.97259551 1.8637702 5.23472548 3.82977285 7.4609375 6.54296875 C8.1621875 7.34734375 8.8634375 8.15171875 9.5859375 8.98046875 C14.07011433 15.10884375 15.01604525 19.93520969 14.9609375 27.35546875 C14.95449219 28.25040039 14.94804687 29.14533203 14.94140625 30.06738281 C14.75753384 36.67469257 13.95391499 41.47201115 9.4609375 46.54296875 C8.86796875 47.25582031 8.275 47.96867187 7.6640625 48.703125 C-1.36066862 58.64837869 -14.88436997 61.38671815 -27.80078125 62.93359375 C-33.75443916 63.16609364 -38.69684358 62.17159897 -43.5390625 58.54296875 C-45.77029641 55.19611788 -45.80265989 54.05541793 -45.84545898 50.14111328 C-45.86144638 49.03631622 -45.87743378 47.93151917 -45.89390564 46.79324341 C-45.89926834 45.5994809 -45.90463104 44.40571838 -45.91015625 43.17578125 C-45.91918472 41.94890594 -45.9282132 40.72203064 -45.93751526 39.45797729 C-45.95203444 36.86051887 -45.96090862 34.26302373 -45.96459961 31.66552734 C-45.97649521 27.69045414 -46.02566842 23.71693292 -46.07617188 19.7421875 C-46.08563579 17.22005967 -46.09287097 14.69792229 -46.09765625 12.17578125 C-46.11718857 10.9860672 -46.13672089 9.79635315 -46.15684509 8.57058716 C-46.1116902 0.31558407 -46.1116902 0.31558407 -43.16088867 -3.66577148 C-30.71406113 -12.16957758 -12.19803351 -6.6222568 0 0 Z " fill="#010101" transform="translate(393.5390625,89.45703125)"/>
<path d="M0 0 C1.27701782 0.01800659 1.27701782 0.01800659 2.57983398 0.03637695 C14.26946159 0.29907777 24.6222935 2.45019261 33.6875 10.375 C38.34696835 15.46610556 40.86070408 22.12477031 40.78125 29.02734375 C39.56417153 36.62238148 36.12900053 42.6924176 30.1875 47.5625 C25.45882156 50.85201544 20.28631014 52.63762068 14.8125 54.3125 C13.72195313 54.67214844 12.63140625 55.03179687 11.5078125 55.40234375 C7.31400315 56.43527988 3.54598193 56.64409325 -0.75 56.625 C-1.47896484 56.64111328 -2.20792969 56.65722656 -2.95898438 56.67382812 C-7.72271672 56.67811591 -11.14395269 56.08748345 -15.1875 53.3125 C-21.76407968 42.14472319 -19.55887319 21.56989901 -16.5 9.5625 C-15.51657291 5.95255363 -14.89511338 3.95202228 -12.1171875 1.44140625 C-8.02345674 -0.13604467 -4.34921006 -0.09387395 0 0 Z " fill="#010101" transform="translate(556.1875,175.6875)"/>
<path d="M0 0 C2.18065367 0.00535249 4.36110066 0.00002922 6.54174805 -0.00634766 C17.28196735 -0.01313952 27.72513553 0.34026668 38.18823242 2.94287109 C38.91703613 3.12100342 39.64583984 3.29913574 40.39672852 3.48266602 C64.48292221 9.50023632 86.13045423 20.93732778 104.31323242 37.88037109 C106.18740491 39.61037647 108.06630885 41.23697327 110.06323242 42.81787109 C113.34115701 45.63841085 116.02922557 48.78156656 118.75073242 52.13037109 C119.95046831 49.90229015 120.86428068 47.78133361 121.64916992 45.36865234 C126.47108344 31.19359453 134.15055292 18.26882807 147.75073242 11.13037109 C151.36735836 9.62302906 155.03571397 8.36871058 158.75073242 7.13037109 C159.49838867 6.79536591 160.24604492 6.46036072 161.01635742 6.11520386 C170.85375705 2.5720931 183.16184644 3.98044731 193.50073242 3.99755859 C194.97176123 3.99688208 196.44278993 3.99590919 197.91381836 3.99465942 C200.97274863 3.99319877 204.03164938 3.99528376 207.09057617 4 C210.96973014 4.00569626 214.84881487 4.0024084 218.72796631 3.99642754 C221.75838727 3.99277739 224.78879238 3.99398073 227.81921387 3.99655533 C229.24784351 3.99721235 230.6764747 3.99644021 232.10510254 3.99407578 C244.5456368 3.97799382 256.97624454 4.09571312 269.12573242 7.00537109 C270.21821289 7.24707031 270.21821289 7.24707031 271.33276367 7.49365234 C288.95130915 11.54497564 306.07592485 20.44300844 319.75073242 32.13037109 C323.25496886 29.39535729 326.18213569 26.69660321 329.00073242 23.25537109 C332.95452352 18.60747 337.62636422 15.38459206 342.75073242 12.13037109 C343.48678711 11.61345703 344.2228418 11.09654297 344.98120117 10.56396484 C348.83471615 8.56926809 352.6962916 7.81729558 356.93823242 7.00537109 C358.28087158 6.74771973 358.28087158 6.74771973 359.65063477 6.48486328 C374.00885972 3.86873526 388.38887354 4.04862945 402.93823242 4.00537109 C403.65730774 4.00251099 404.37638306 3.99965088 405.11724854 3.9967041 C430.98961592 3.92438338 430.98961592 3.92438338 441.39135742 6.60302734 C444.42932709 7.28204374 447.47413005 7.62429187 450.56323242 8.00537109 C470.3433703 10.84916088 487.92461008 20.90921669 501.75073242 35.13037109 C502.4597168 35.75943359 503.16870117 36.38849609 503.89916992 37.03662109 C510.75112891 43.21150904 515.09465951 51.26847749 519.75073242 59.13037109 C523.07683479 55.89714418 526.07019608 52.58576153 528.93823242 48.94287109 C545.36749929 28.74517503 566.05705001 15.84988815 590.75073242 8.13037109 C591.52803711 7.86224609 592.3053418 7.59412109 593.10620117 7.31787109 C604.53160925 3.53967574 616.5283461 3.96808177 628.43261719 4 C630.81280867 4.00537014 633.19281218 4.00001713 635.57299805 3.99365234 C646.79472207 3.98714848 657.6531955 4.37911345 668.62573242 6.94287109 C669.39892822 7.12172852 670.17212402 7.30058594 670.96875 7.48486328 C673.23323223 8.01889722 675.49261465 8.57009398 677.75073242 9.13037109 C678.91217773 9.41783203 680.07362305 9.70529297 681.27026367 10.00146484 C692.16388817 13.02374044 702.63014317 18.4465805 711.75073242 25.13037109 C711.75073242 25.79037109 711.75073242 26.45037109 711.75073242 27.13037109 C712.29084961 27.34822266 712.8309668 27.56607422 713.38745117 27.79052734 C726.03711165 34.96215304 734.82874919 49.59320316 738.75073242 63.13037109 C742.44446037 79.42492983 740.62422177 96.99697187 731.80151367 111.22802734 C730.6892474 113.24168412 730.02833682 114.84366368 729.75073242 117.13037109 C731.80407497 119.50454842 733.98623484 121.47508745 736.36401367 123.51318359 C747.53897879 133.73763444 753.58675824 149.25474959 754.75073242 164.13037109 C755.30013388 177.89627291 755.06838177 191.53447907 752.75073242 205.13037109 C752.57928711 206.30728516 752.4078418 207.48419922 752.23120117 208.69677734 C748.76917135 229.40194923 739.60060281 249.36509309 725.75073242 265.13037109 C725.31825195 265.62311523 724.88577148 266.11585938 724.44018555 266.62353516 C719.24338777 272.50910908 714.04414494 278.38856028 707.75073242 283.13037109 C707.1706543 283.58283203 706.59057617 284.03529297 705.99291992 284.50146484 C695.94331681 291.77264827 678.43713184 302.08185105 665.75073242 301.13037109 C668.83490282 299.07425749 671.42836256 298.16051814 674.93823242 297.00537109 C704.11921244 286.90160094 726.30396031 266.58154422 739.87963867 238.94433594 C752.67580421 212.29761229 758.04253384 176.2704073 748.64916992 147.79052734 C746.41817681 142.08350302 743.65418495 137.04336036 740.08276367 132.06787109 C738.75073242 130.13037109 738.75073242 130.13037109 737.68823242 127.94287109 C736.44921615 125.54743963 735.17825066 125.24009372 732.75073242 124.13037109 C731.90510742 123.44974609 731.05948242 122.76912109 730.18823242 122.06787109 C727.83047223 119.96652761 727.83047223 119.96652761 724.75073242 119.13037109 C726.00452275 115.69737377 727.45000156 112.99327088 729.62573242 110.06787109 C737.98428849 97.84680378 739.3015906 82.19666421 737.28979492 67.84130859 C732.94689078 48.4770654 719.87871675 33.62213766 703.53198242 23.04833984 C674.00925384 5.4457626 629.5579807 1.47490893 596.29907227 9.15307617 C569.16403803 16.41264946 543.33603953 31.65724218 527.00073242 54.88037109 C526.07085074 56.18937809 525.13863707 57.4967323 524.20385742 58.80224609 C523.80328125 59.37040039 523.40270508 59.93855469 522.98999023 60.52392578 C521.69265027 62.20566278 520.28203076 63.66125746 518.75073242 65.13037109 C518.16678711 63.84066406 518.16678711 63.84066406 517.57104492 62.52490234 C508.83766917 44.07212454 496.66341428 31.22893905 478.75073242 21.13037109 C477.78264648 20.57220703 476.81456055 20.01404297 475.81713867 19.43896484 C454.52803481 7.91338487 427.66224947 7.6024189 404.04174805 7.73925781 C400.75161321 7.75536678 397.46270608 7.73927513 394.17260742 7.72021484 C383.30389322 7.70707568 372.55507519 8.11756987 361.75073242 9.34130859 C360.30996338 9.49051254 360.30996338 9.49051254 358.84008789 9.64273071 C346.35947952 11.2440924 335.65217813 17.94107274 327.87573242 27.75537109 C325.64831952 30.77865775 323.55882439 33.83326222 321.75073242 37.13037109 C320.88448242 36.32599609 320.01823242 35.52162109 319.12573242 34.69287109 C294.87224345 14.0846961 263.66828659 6.97761781 232.55151367 6.96240234 C230.98748241 6.95917975 229.42345144 6.95581497 227.85942078 6.95231628 C224.59247134 6.94635863 221.32554822 6.94447285 218.05859375 6.94506836 C213.91481951 6.94516966 209.77121783 6.93153521 205.62748432 6.91429615 C202.3988521 6.9030628 199.17026008 6.90115261 195.94161034 6.90167809 C194.41611323 6.90051427 192.89061451 6.89618491 191.3651371 6.88834572 C171.56609742 6.79613627 152.26561061 8.27336076 137.06323242 22.38037109 C127.6342573 32.39729617 124.39615538 45.2222598 120.75073242 58.13037109 C117.66602631 55.09568724 114.69801351 52.00402026 111.80810547 48.78027344 C86.98378607 21.14657196 50.88739917 4.36772391 13.75073242 2.13037109 C-25.37760496 0.28623813 -61.86355167 11.6692999 -91.24926758 38.13037109 C-119.9001425 64.32290262 -136.98443098 102.47465376 -139.24926758 141.13037109 C-140.21111874 170.63292995 -137.92067182 200.02087643 -125.24926758 227.13037109 C-124.94762695 227.78295898 -124.64598633 228.43554688 -124.33520508 229.10791016 C-120.43717957 237.47044252 -116.13785624 245.22386076 -110.81567383 252.77490234 C-109.24926758 255.13037109 -109.24926758 255.13037109 -108.24926758 258.13037109 C-115.22238664 255.80599807 -118.85575871 246.00657877 -122.04223633 239.74365234 C-127.2982893 229.11877081 -132.06340734 218.57165488 -135.24926758 207.13037109 C-135.43038086 206.49083496 -135.61149414 205.85129883 -135.7980957 205.19238281 C-147.85094614 162.11499139 -143.98391152 113.20934852 -122.48535156 73.63916016 C-115.85133517 61.89978832 -107.58394509 51.80228407 -98.24926758 42.13037109 C-97.46036133 41.27830078 -96.67145508 40.42623047 -95.85864258 39.54833984 C-86.82224977 30.04815866 -75.99912052 21.9761657 -64.24926758 16.13037109 C-63.17032227 15.56705078 -62.09137695 15.00373047 -60.97973633 14.42333984 C-41.25596424 4.20411947 -22.09837489 -0.06443397 0 0 Z " fill="#F1F1F1" transform="translate(143.249267578125,3.86962890625)"/>
<path d="M0 0 C0.83998535 0.01329346 1.6799707 0.02658691 2.54541016 0.0402832 C11.01654971 0.35987252 19.75377949 2.1535794 26.125 8.1875 C27.053125 9.3940625 27.053125 9.3940625 28 10.625 C28.556875 11.24375 29.11375 11.8625 29.6875 12.5 C33.04740288 17.93984275 33.96936042 24.37007434 33 30.625 C30.61532023 37.86777159 26.60075015 43.70612944 20 47.625 C10.13487008 51.76516038 -1.47196938 54.01861123 -11.75 50.25 C-15.06611767 46.38119605 -15.4222273 42.58484099 -16 37.625 C-16.10957031 36.92761719 -16.21914063 36.23023438 -16.33203125 35.51171875 C-17.5015487 27.73052935 -17.18133159 20.60889846 -15.8125 12.875 C-15.59207031 11.62203125 -15.37164063 10.3690625 -15.14453125 9.078125 C-12.44037667 0.91951528 -7.80303423 -0.22040285 0 0 Z " fill="#010101" transform="translate(555,80.375)"/>
<path d="M0 0 C0.70108887 0.00418945 1.40217773 0.00837891 2.12451172 0.01269531 C10.46195429 0.1940699 16.49000753 2.26413617 23.125 7.3125 C23.97191406 7.89064453 23.97191406 7.89064453 24.8359375 8.48046875 C31.13629455 13.17134594 34.72532815 20.2688549 36.8046875 27.76171875 C37.89885061 36.47499328 36.40459611 45.23827697 33.125 53.3125 C32.795 54.3025 32.465 55.2925 32.125 56.3125 C32.7540625 55.91417969 33.383125 55.51585937 34.03125 55.10546875 C44.18945544 48.81778436 54.06857943 44.27800244 66.16796875 46.99609375 C77.05063286 50.32020281 83.57797556 55.37985935 89.125 65.3125 C93.32228957 73.52672685 94.44446101 82.32458858 92.125 91.3125 C91.795 91.3125 91.465 91.3125 91.125 91.3125 C91.12242187 90.15234375 91.11984375 88.9921875 91.1171875 87.796875 C90.91540387 76.60028577 89.75709967 67.59878184 81.97265625 58.91015625 C74.38169291 51.73442509 66.34914996 48.81060645 55.92578125 48.98046875 C44.46615883 50.33900139 33.18103621 58.19007808 25.875 66.875 C25.2975 67.679375 24.72 68.48375 24.125 69.3125 C23.795 68.6525 23.465 67.9925 23.125 67.3125 C24.30662808 64.73141847 25.5459952 62.25350712 26.875 59.75 C32.76009057 48.2152734 36.72038481 37.92577003 33.46875 24.62890625 C29.6216576 15.06092214 22.25322015 8.73135364 13.125 4.3125 C4.23388659 1.73500172 -7.08107738 1.85274937 -15.5 5.75 C-23.44736842 10.42362581 -28.80905336 16.60740151 -31.875 25.3125 C-32.29302877 28.05686059 -32.35240405 30.72730196 -32.3125 33.5 C-32.30492676 34.24467529 -32.29735352 34.98935059 -32.28955078 35.7565918 C-31.97934836 46.2683781 -27.89909041 54.78136951 -22.94921875 63.9140625 C-22.59472656 64.70554687 -22.24023438 65.49703125 -21.875 66.3125 C-22.205 66.9725 -22.535 67.6325 -22.875 68.3125 C-23.30167969 67.8278125 -23.72835937 67.343125 -24.16796875 66.84375 C-31.78804724 58.67376894 -42.01732214 51.05591067 -53.42578125 49.9765625 C-64.74845816 49.85898538 -71.75575593 51.63732673 -80.0859375 59.38671875 C-87.03492659 66.86674412 -89.38663979 74.82742342 -89.1796875 84.93359375 C-88.31194038 94.55668681 -84.22823043 102.06350895 -76.875 108.3125 C-70.18600805 112.51069615 -64.45430852 114.44730806 -56.578125 114.41015625 C-55.37285156 114.40693359 -54.16757813 114.40371094 -52.92578125 114.40039062 C-51.04439453 114.38782227 -51.04439453 114.38782227 -49.125 114.375 C-47.22041016 114.36823242 -47.22041016 114.36823242 -45.27734375 114.36132812 C-42.14318164 114.34954556 -39.00911459 114.33309416 -35.875 114.3125 C-38.84603057 116.57271632 -41.87125536 118.56130737 -45.0625 120.5 C-54.57919276 126.54799166 -61.32349315 132.87124754 -66.1875 143.0625 C-68.3460001 153.26631866 -66.9998629 162.6828457 -61.47265625 171.56640625 C-56.61250223 177.8287563 -49.73759057 182.42081956 -41.81396484 183.62597656 C-32.01052787 184.50100861 -23.46137561 183.71931995 -15.5625 177.48828125 C-13.60734437 175.81485812 -11.72179013 174.10393675 -9.875 172.3125 C-9.875 175.3125 -9.875 175.3125 -11.34375 177.03125 C-20.01741382 184.63738596 -28.40545263 186.81070867 -39.9296875 186.1328125 C-50.31614652 184.8378087 -56.87777108 180.17111154 -63.4375 172.19921875 C-68.29331116 165.8259666 -69.07036739 160.90124191 -69.125 153 C-69.145625 152.26587891 -69.16625 151.53175781 -69.1875 150.77539062 C-69.22486924 145.51099903 -68.25178846 142.01453212 -65.875 137.3125 C-65.51019531 136.590625 -65.14539063 135.86875 -64.76953125 135.125 C-60.7367421 128.36971421 -55.12598385 123.94853034 -48.875 119.3125 C-50.56945589 117.61804411 -52.76772082 118.01224826 -55.04321289 117.81958008 C-66.05065611 116.82072636 -75.77267468 113.67327041 -83.4140625 105.23046875 C-89.8479241 96.78387505 -92.86268906 87.93812266 -91.875 77.3125 C-90.120788 67.05833349 -84.75905832 59.23118557 -76.625 52.875 C-69.36157623 47.95975159 -61.82777395 45.31986053 -53.04296875 46.8125 C-44.37805988 48.8108934 -37.43417816 52.64397204 -29.875 57.3125 C-30.32875 56.36375 -30.7825 55.415 -31.25 54.4375 C-35.43464895 44.52127026 -37.02309033 32.23450753 -33.25 22 C-29.13744063 13.17513303 -23.4924021 6.99449527 -14.875 2.3125 C-9.89219804 0.55007533 -5.25273006 -0.04302405 0 0 Z " fill="#F0F0F0" transform="translate(148.875,59.6875)"/>
<path d="M0 0 C19.41439699 18.33955148 28.94104551 51.90168318 30.1262207 77.75317383 C31.15912926 117.05944315 20.41146525 153.36931644 -6.63671875 182.56640625 C-30.77236019 207.42013289 -61.82697625 219.78660517 -96.26904297 220.30273438 C-113.05308088 220.34899051 -128.15770584 218.72811772 -144 213 C-144.69383789 212.75121094 -145.38767578 212.50242187 -146.10253906 212.24609375 C-162.74415513 206.15564483 -176.42519734 197.43088504 -189 185 C-189.84949219 184.22269531 -190.69898438 183.44539062 -191.57421875 182.64453125 C-212.19645014 163.31725945 -226.13261526 132.0922015 -227.109375 103.8359375 C-227.12262358 101.21934308 -227.0926476 98.61472116 -227 96 C-226.67 96 -226.34 96 -226 96 C-225.85751831 97.01030273 -225.85751831 97.01030273 -225.7121582 98.04101562 C-223.79201779 111.41476509 -221.77891027 124.32256846 -217 137 C-216.73815918 137.71124023 -216.47631836 138.42248047 -216.20654297 139.15527344 C-212.79182184 148.32372983 -209.00387307 156.20598128 -203 164 C-201.8819742 165.615496 -200.77728601 167.24032099 -199.6875 168.875 C-198.98173828 169.92300781 -198.98173828 169.92300781 -198.26171875 170.9921875 C-197.03481453 172.94459855 -195.9931518 174.92044271 -195 177 C-194.34 177 -193.68 177 -193 177 C-192.03678502 178.06380389 -191.13089825 179.1795922 -190.25 180.3125 C-177.69715716 195.02693196 -159.85854522 204.39905333 -142 211 C-140.92105469 211.4021875 -139.84210938 211.804375 -138.73046875 212.21875 C-111.49616101 221.44834851 -79.74199554 220.27067449 -53 210 C-52.00709961 209.62101562 -52.00709961 209.62101562 -50.99414062 209.234375 C-20.96072371 197.50840935 2.45942946 174.86113446 15.71044922 145.45874023 C27.29334254 118.76417867 31.31118026 89.72689469 26 61 C25.67 60.67 25.34 60.34 25 60 C24.50770385 57.64824792 24.05596474 55.30048249 23.625 52.9375 C22.55210177 47.35673034 21.25359594 42.21400151 19 37 C18.67515625 36.14792969 18.3503125 35.29585937 18.015625 34.41796875 C15.60402676 28.24857187 12.73377791 22.45665612 9.5 16.6875 C9.13245605 16.03007813 8.76491211 15.37265625 8.38623047 14.6953125 C6.4878387 11.37333663 4.48366096 8.23007368 2.21875 5.14453125 C0 2 0 2 0 0 Z " fill="#F0F0F0" transform="translate(248,73)"/>
<path d="M0 0 C0 0.33 0 0.66 0 1 C-8.29221645 1.25470972 -16.32172961 0.84175239 -24.5625 0 C-44.82920107 -1.98306348 -64.74612354 -0.74173385 -85 1 C-85.91523438 1.07476562 -86.83046875 1.14953125 -87.7734375 1.2265625 C-98.03771993 2.08991336 -106.21240928 2.89892656 -113.6875 10.4375 C-124.04433857 23.15891358 -125.18930284 41.27597481 -124 57 C-123.45583357 60.29108875 -122.72150511 63.43546203 -121.859375 66.65625 C-120.84600373 70.59918548 -120.12481471 74.55206062 -119.4375 78.5625 C-119.31141357 79.29509033 -119.18532715 80.02768066 -119.05541992 80.7824707 C-118.81137686 82.20971399 -118.56873587 83.63719787 -118.32763672 85.06494141 C-118.04828354 86.71483211 -117.76126843 88.3634225 -117.47265625 90.01171875 C-116.95611466 93.00424482 -116.47309981 96.00027295 -116 99 C-115.87592773 99.7739209 -115.75185547 100.5478418 -115.62402344 101.34521484 C-115.19637629 104.04100948 -114.78443217 106.73888285 -114.375 109.4375 C-114.23964844 110.28344727 -114.10429687 111.12939453 -113.96484375 112.00097656 C-112.23496007 123.67769141 -112.99991507 135.07500006 -114.375 146.75 C-114.50132812 147.90371094 -114.62765625 149.05742187 -114.7578125 150.24609375 C-115.56576989 157.3318801 -116.69764242 164.18762991 -118.56054688 171.07128906 C-123.52667916 189.53486648 -125.94207709 223.83121199 -117 241 C-116.67 241.94875 -116.34 242.8975 -116 243.875 C-115.67 244.57625 -115.34 245.2775 -115 246 C-114.01 246.33 -113.02 246.66 -112 247 C-111.67 247.66 -111.34 248.32 -111 249 C-101.82064267 255.04868848 -90.24929747 257.25763128 -79.43041992 255.07641602 C-72.67575438 253.38754905 -66.96579349 251.00530909 -62 246 C-61.236875 245.278125 -60.47375 244.55625 -59.6875 243.8125 C-52.88455384 232.47425641 -53.79549856 217.73923613 -53.4375 204.9375 C-53.39421245 203.4850161 -53.35059526 202.03254199 -53.30664062 200.58007812 C-53.20062746 197.05349009 -53.09907252 193.52679065 -53 190 C-52.67 190 -52.34 190 -52 190 C-51.95015938 195.22866463 -51.91407394 200.45718765 -51.89013672 205.68603516 C-51.88014622 207.46079928 -51.86654919 209.23554723 -51.84912109 211.01025391 C-51.59157324 237.93157976 -51.59157324 237.93157976 -60.75390625 247.91015625 C-69.49321469 256.22574065 -79.69069069 258.3240755 -91.390625 258.21484375 C-101.05661949 257.63948693 -109.5849363 253.89413018 -116.25 246.8125 C-122.28734101 239.29461215 -124.12434648 230.27149774 -124.1328125 220.85546875 C-124.13376923 220.16802078 -124.13472595 219.48057281 -124.13571167 218.77229309 C-124.13639048 217.31572376 -124.13455708 215.85915136 -124.13037109 214.40258789 C-124.12510914 212.23251033 -124.13027864 210.0626485 -124.13671875 207.89257812 C-124.15293526 182.58508892 -124.15293526 182.58508892 -121.125 171.5 C-112.06915415 137.75359024 -116.18473325 104.38456739 -123.94921875 70.86328125 C-128.03199173 52.63806483 -128.43366229 31.1738463 -119.25 14.4375 C-114.3034542 7.05496681 -108.52561288 2.44303949 -100 0 C-96.94836191 -0.56953434 -93.9049019 -0.8709316 -90.8125 -1.125 C-89.94520264 -1.20282715 -89.07790527 -1.2806543 -88.18432617 -1.36083984 C-59.02859984 -3.86147483 -28.98103848 -4.60873248 0 0 Z " fill="#EFEFEF" transform="translate(405,31)"/>
<path d="M0 0 C0 3.94004756 -1.84717441 6.00205247 -4 9.125 C-17.1253479 29.0103955 -24.75897501 52.30615831 -27 76 C-27.06864258 76.71800781 -27.13728516 77.43601562 -27.20800781 78.17578125 C-28.03980581 88.34323382 -26.13224261 95.21451081 -21 104 C-16.31142481 113.93531409 -13.57174989 124.54640803 -12.0703125 135.39453125 C-11.91175781 136.53277344 -11.75320313 137.67101562 -11.58984375 138.84375 C-11.28678146 141.10525682 -11.00449942 143.36967522 -10.74609375 145.63671875 C-9.72769326 153.35413898 -7.41249679 158.62875298 -3 165 C-2.09121094 166.50046875 -2.09121094 166.50046875 -1.1640625 168.03125 C4.7736406 177.55568747 11.17110368 186.004679 20 193 C21.30904297 194.06347656 21.30904297 194.06347656 22.64453125 195.1484375 C46.52067825 213.87858762 74.03943407 220.0330836 104 218 C124.11390227 215.36905505 142.706802 208.40479831 158.328125 195.25 C160 194 160 194 162 194 C162.33 193.01 162.66 192.02 163 191 C166.39448225 187.31456212 170.12327094 184.15547714 174 181 C167.04250446 196.79931279 147.99342766 207.49370207 132.6875 213.75 C103.0473733 224.50181066 71.82250053 223.69751293 43 211 C32.01633477 205.86319 22.88517819 199.19200826 14 191 C13.02353516 190.14535156 13.02353516 190.14535156 12.02734375 189.2734375 C6.25692553 183.95319375 1.77310147 177.34624359 -2.66748047 170.91699219 C-3.50538666 169.71156174 -4.3567882 168.51529052 -5.22705078 167.33300781 C-12.31140703 157.64494793 -13.23133597 148.4429714 -14.37109375 136.7890625 C-15.76307323 122.81494653 -20.44051794 108.17112688 -27.875 96.1875 C-30.65694086 91.33923008 -30.52752504 87.47219304 -30 82 C-29.92386475 81.04625488 -29.92386475 81.04625488 -29.84619141 80.07324219 C-27.59405148 52.15703209 -18.93525228 21.3706545 0 0 Z " fill="#EFF0F0" transform="translate(683,70)"/>
<path d="M0 0 C5.28038182 4.35744975 6.57693115 12.48668912 7.359375 18.984375 C7.60211488 27.57736687 5.8534138 34.12272379 0.375 40.8125 C-5.17915545 46.68432855 -12.05276021 49.61556481 -20.06640625 50.23828125 C-29.02211552 50.42840245 -37.33538956 50.12458003 -44.328125 43.94140625 C-45.82065624 42.39407928 -47.2960272 40.83001865 -48.75390625 39.25 C-58.12629275 29.8613137 -71.19547663 26.69944324 -84.06176758 26.68530273 C-96.43639613 26.93754157 -108.78881727 32.85072389 -117.8125 41.25 C-131.53210248 56.30160272 -136.39447188 75.13143966 -136.4375 95 C-136.44209229 96.27278809 -136.44668457 97.54557617 -136.45141602 98.85693359 C-136.34323922 108.0876301 -135.04361962 116.10570112 -131.99609375 124.7890625 C-131 128 -131 128 -132 131 C-142.26720675 112.46607377 -140.82322625 88.06927858 -135.65917969 68.22998047 C-130.93086868 52.23427946 -120.36384758 38.46521425 -106 30 C-97.8423996 25.80612393 -91.36093876 24.81849404 -82.25 24.8125 C-81.28578125 24.80025391 -80.3215625 24.78800781 -79.328125 24.77539062 C-63.76289154 24.743668 -53.39473335 30.93222952 -42.31640625 41.625 C-36.59134175 47.07435318 -28.23266313 47.49584376 -20.6484375 47.31640625 C-11.88190469 46.26907711 -4.40962716 43.3248328 1.2421875 36.5 C5.56623608 29.82009046 4.94606548 20.6449368 4 13 C3.17622567 9.83983125 2.18738696 6.9886752 0.875 4.00390625 C0 2 0 2 0 0 Z " fill="#F1F1F1" transform="translate(857,63)"/>
<path d="M0 0 C6.86441236 -0.02560525 13.72881215 -0.04297267 20.59326172 -0.05493164 C22.92269348 -0.05992351 25.25212218 -0.06671934 27.58154297 -0.07543945 C60.55319185 -0.19567069 60.55319185 -0.19567069 73.375 2.875 C74.10332031 3.03613281 74.83164062 3.19726562 75.58203125 3.36328125 C93.20057673 7.41460454 110.32519243 16.31263735 124 28 C127.50423643 25.2649862 130.43140327 22.56623212 133.25 19.125 C137.2037911 14.4770989 141.8756318 11.25422096 147 8 C148.10408203 7.22462891 148.10408203 7.22462891 149.23046875 6.43359375 C153.08398373 4.438897 156.94555918 3.68692449 161.1875 2.875 C162.08259277 2.70323242 162.97768555 2.53146484 163.89990234 2.35449219 C183.64598219 -1.2433253 204.00879509 -0.11188465 224 0 C224.33 0.66 224.66 1.32 225 2 C224.05608398 2.01458252 223.11216797 2.02916504 222.13964844 2.04418945 C205.797198 2.31503431 189.509295 2.66514409 173.25 4.4375 C171.55955566 4.62082886 171.55955566 4.62082886 169.83496094 4.80786133 C154.50400558 6.61115851 141.9914077 11.14139783 132.125 23.625 C129.89758709 26.64828666 127.80809196 29.70289113 126 33 C125.13375 32.195625 124.2675 31.39125 123.375 30.5625 C109.6254831 18.87954376 93.30597585 11.66433102 76 7 C75.05898438 6.72414063 74.11796875 6.44828125 73.1484375 6.1640625 C49.79149596 -0.06034672 24.008098 1.45070147 0 1 C0 0.67 0 0.34 0 0 Z " fill="#F7F7F7" transform="translate(339,8)"/>
<path d="M0 0 C6.64811563 1.90084003 10.84790528 5.53813806 16 10 C16.63292969 10.52464844 17.26585937 11.04929687 17.91796875 11.58984375 C30.80214001 23.17675291 39.16300773 45.6827362 40.14794922 62.53076172 C41.06899709 88.30635507 37.10769816 118.43349144 18.9296875 138.2578125 C0.01583876 156.6722857 -29.52757348 162.79770266 -55.0234375 163.80078125 C-62.93305868 164.19703929 -69.50850149 165.32612107 -76 170 C-78.33414647 172.95849927 -78.33414647 172.95849927 -80 176 C-80.66 176.99 -81.32 177.98 -82 179 C-82.08258508 175.03591631 -81.77036812 172.97521601 -79.28125 169.82421875 C-73.80743126 164.55277711 -69.45173961 162.7019058 -62 162 C-59.9645156 161.77158914 -57.92903171 161.54317384 -55.89355469 161.31469727 C-54.36453391 161.14471465 -52.83522712 160.97728766 -51.30566406 160.81225586 C-26.43798885 158.1208938 3.61888073 153.27626785 20.75 132.875 C27.17023476 123.97730994 30.91329563 113.4451871 34 103 C34.28875 102.02289063 34.5775 101.04578125 34.875 100.0390625 C36.877835 92.70175349 37.71888377 85.59013833 38 78 C38.05285156 76.71738281 38.10570312 75.43476562 38.16015625 74.11328125 C38.77331217 52.60324958 31.4062181 29.24009756 16.51171875 13.359375 C13.04344412 10.10146228 9.30908214 7.37044209 5.3828125 4.69140625 C3.35094421 3.24911286 1.68421 1.82363136 0 0 Z " fill="#F0F0F0" transform="translate(435,42)"/>
<path d="M0 0 C8.15787855 3.42919674 12.50144841 12.45454566 16.3125 20 C16.63766602 20.63953613 16.96283203 21.27907227 17.29785156 21.93798828 C21.57411336 30.74584423 23.5462544 39.01769918 23.4375 48.8125 C23.42992676 49.77446289 23.42235352 50.73642578 23.41455078 51.72753906 C23.05045007 67.51941087 17.11226796 79.72156239 5.73828125 90.6640625 C0.93403447 94.76240711 -4.35134392 98.17567196 -10 101 C-8.65808594 101.70962891 -8.65808594 101.70962891 -7.2890625 102.43359375 C0.74641417 106.7863759 7.52679216 111.4569374 14 118 C14.63421875 118.60070312 15.2684375 119.20140625 15.921875 119.8203125 C27.25226117 131.40137093 30.3539942 147.11057842 30.3125 162.6875 C30.32861328 163.87794922 30.34472656 165.06839844 30.36132812 166.29492188 C30.36582816 174.57048524 29.19804455 182.02699467 27 190 C25.98574945 186.84455384 26.17647043 185.1574415 27 182 C27.2702672 177.17282262 27.31335576 172.34771406 27.35009766 167.51367188 C27.36651415 165.93897576 27.39361064 164.36434961 27.43212891 162.79003906 C27.88516172 144.12508729 22.57081333 130.85526509 9.98828125 117.00390625 C8.15832701 114.94585585 8.15832701 114.94585585 6 114 C6 113.34 6 112.68 6 112 C4.98873047 111.61714844 4.98873047 111.61714844 3.95703125 111.2265625 C0.44867244 109.77131195 -2.92678552 108.09052165 -6.3125 106.375 C-6.95767578 106.05015625 -7.60285156 105.7253125 -8.26757812 105.390625 C-9.84597541 104.59558044 -11.42311694 103.79804366 -13 103 C-11.47516915 98.32589539 -11.47516915 98.32589539 -9.37109375 96.8828125 C-8.73300781 96.63273437 -8.09492187 96.38265625 -7.4375 96.125 C4.3464271 90.78807649 13.35590334 81.0100082 18 69 C23.41078519 51.92017204 21.32532854 35.59039492 13.75 19.625 C10.91305608 14.26360491 7.63839168 9.59301189 3.69921875 4.98828125 C2 3 2 3 0 0 Z " fill="#F3F3F3" transform="translate(626,49)"/>
<path d="M0 0 C1.00907913 -0.00307663 2.01815826 -0.00615326 3.05781555 -0.00932312 C4.14112656 -0.0021376 5.22443756 0.00504791 6.34057617 0.01245117 C7.47194504 0.01290939 8.6033139 0.01336761 9.76896667 0.01383972 C12.16711473 0.01685981 14.56526086 0.02473883 16.96337891 0.03710938 C20.58202307 0.05516288 24.20040764 0.05762021 27.8190918 0.05737305 C70.27041488 0.11948969 70.27041488 0.11948969 80.38354492 9.64916992 C82.52680147 12.02538914 84.18476827 14.49397515 85.82104492 17.24291992 C85.49104492 17.90291992 85.16104492 18.56291992 84.82104492 19.24291992 C84.46913086 18.72342773 84.1172168 18.20393555 83.75463867 17.66870117 C78.94769103 10.87873074 74.06167908 6.30307846 65.82104492 4.24291992 C50.37471858 1.71674171 34.38055826 2.06793736 18.76486206 1.90188599 C16.98228055 1.8794096 15.19978468 1.84835061 13.41751099 1.80831909 C-0.70400592 1.28204942 -0.70400592 1.28204942 -13.17895508 7.24291992 C-19.01695105 13.47782932 -20.43430818 18.287906 -20.33520508 26.71166992 C-20.00580926 32.04788222 -18.56980184 37.08639809 -15.17895508 41.24291992 C-7.49399639 47.11867667 0.15975305 47.35799022 9.50073242 47.14916992 C10.33491699 47.13523193 11.16910156 47.12129395 12.02856445 47.10693359 C13.68894973 47.07329222 15.34908355 47.01964355 17.00805664 46.94335938 C22.80866186 46.80593556 26.06378955 47.87423517 30.82104492 51.24291992 C32.35371074 54.30825157 31.92380963 57.51046264 31.88354492 60.86791992 C31.8790332 61.57432617 31.87452148 62.28073242 31.86987305 63.00854492 C31.85808367 64.75337267 31.84014817 66.49815692 31.82104492 68.24291992 C31.49104492 68.24291992 31.16104492 68.24291992 30.82104492 68.24291992 C30.7649707 67.03055664 30.7649707 67.03055664 30.70776367 65.79370117 C30.64202148 64.72506836 30.5762793 63.65643555 30.50854492 62.55541992 C30.45053711 61.49967773 30.3925293 60.44393555 30.33276367 59.35620117 C29.77420167 55.95792699 28.89482809 53.97676709 26.82104492 51.24291992 C23.5661663 50.15796038 21.35471876 50.18678091 17.93823242 50.28588867 C16.7703418 50.3071582 15.60245117 50.32842773 14.39916992 50.3503418 C11.95356264 50.40322676 9.50818171 50.46809945 7.06323242 50.5456543 C-2.73596441 50.6907082 -10.35525511 48.84778919 -17.67114258 42.05932617 C-22.42921702 36.32744894 -23.94071228 29.2936973 -23.62036133 21.97729492 C-22.34853972 14.09875398 -18.2393571 8.64841839 -12.24145508 3.61791992 C-8.26573368 0.96743899 -4.75469471 -0.00768046 0 0 Z " fill="#EBEBEB" transform="translate(786.178955078125,134.757080078125)"/>
<path d="M0 0 C1.27701782 0.01800659 1.27701782 0.01800659 2.57983398 0.03637695 C14.26946159 0.29907777 24.6222935 2.45019261 33.6875 10.375 C38.34696835 15.46610556 40.86070408 22.12477031 40.78125 29.02734375 C39.56417153 36.62238148 36.12900053 42.6924176 30.1875 47.5625 C25.45882156 50.85201544 20.28631014 52.63762068 14.8125 54.3125 C13.72195313 54.67214844 12.63140625 55.03179687 11.5078125 55.40234375 C7.31400315 56.43527988 3.54598193 56.64409325 -0.75 56.625 C-1.47896484 56.64111328 -2.20792969 56.65722656 -2.95898438 56.67382812 C-7.72271672 56.67811591 -11.14395269 56.08748345 -15.1875 53.3125 C-19.15671148 46.57232956 -18.45781278 37.18736103 -18.5 29.625 C-18.50563965 28.65143555 -18.5112793 27.67787109 -18.51708984 26.67480469 C-18.45623272 20.60353256 -17.70731153 15.19193026 -16.1875 9.3125 C-15.8575 9.3125 -15.5275 9.3125 -15.1875 9.3125 C-15.19273682 10.29532959 -15.19797363 11.27815918 -15.20336914 12.29077148 C-15.22161898 15.97533235 -15.23300427 19.6598893 -15.24243164 23.34448242 C-15.24742654 24.93205439 -15.25422475 26.51962183 -15.26293945 28.10717773 C-15.33460756 40.24182898 -15.33460756 40.24182898 -14.1875 52.3125 C-1.86429542 56.42023486 13.28788224 53.28126144 24.6484375 47.9921875 C30.32424707 44.94622518 34.82704458 41.62804413 36.8125 35.3125 C37.84744486 27.24738915 37.64075567 20.95135154 32.8125 14.3125 C32.8125 13.6525 32.8125 12.9925 32.8125 12.3125 C32.24917969 12.0340625 31.68585937 11.755625 31.10546875 11.46875 C29.57661071 10.69780966 28.05810569 9.905987 26.55078125 9.09375 C25.75027344 8.6709375 24.94976563 8.248125 24.125 7.8125 C23.33738281 7.3896875 22.54976562 6.966875 21.73828125 6.53125 C14.74184661 3.61684732 7.64452955 2.92927086 0.125 2.875 C-0.69033203 2.84212891 -1.50566406 2.80925781 -2.34570312 2.77539062 C-6.69028786 2.73675648 -9.36093015 3.00883616 -12.76953125 5.83984375 C-13.56746094 6.65582031 -14.36539063 7.47179687 -15.1875 8.3125 C-15 6 -15 6 -14.1875 3.3125 C-9.77500483 -0.36748609 -5.45995719 -0.11784848 0 0 Z " fill="#F1F1F1" transform="translate(556.1875,175.6875)"/>
<path d="M0 0 C1.3853595 -0.0049926 1.3853595 -0.0049926 2.79870605 -0.01008606 C4.7450308 -0.01512022 6.69136407 -0.01749548 8.63769531 -0.01733398 C11.55809457 -0.01950475 14.47810561 -0.03765502 17.3984375 -0.05664062 C28.78060105 -0.08960196 39.83015238 0.51017607 51.09375 2.16796875 C51.09375 2.49796875 51.09375 2.82796875 51.09375 3.16796875 C48.61450612 3.1953469 46.13557484 3.21498679 43.65625 3.23046875 C42.62467773 3.24303711 42.62467773 3.24303711 41.57226562 3.25585938 C37.97929882 3.27257085 34.50582152 3.13478607 30.94140625 2.671875 C24.633708 1.90563372 18.31366407 2.02299525 11.96875 2.04296875 C10.73253906 2.03910156 9.49632812 2.03523438 8.22265625 2.03125 C2.39178373 2.03751302 -3.13881147 2.25878169 -8.90625 3.16796875 C-11.31268578 3.28771283 -13.71737116 3.34635933 -16.12597656 3.40673828 C-27.6387253 3.7341253 -36.47932557 4.97219276 -45.140625 13.17578125 C-48.05031631 16.45884003 -50.60025711 19.95025402 -51.90625 24.16796875 C-51.54675654 29.16563279 -49.76361905 33.63867058 -48.03125 38.29296875 C-37.45534029 67.72568775 -37.6016623 98.2150141 -45.90625 128.16796875 C-47.3493563 124.29082316 -46.46331351 121.30177435 -45.53125 117.35546875 C-39.3145309 90.71653689 -40.53518364 56.68038296 -53.06640625 31.87109375 C-54.7746478 28.40693879 -54.43408759 24.83500014 -53.2890625 21.21875 C-49.98680399 13.78136246 -43.83255001 7.25533555 -36.3671875 3.90625 C-30.70084538 2.20634736 -24.77079958 1.76446372 -18.90625 1.16796875 C-18.24648666 1.08501556 -17.58672333 1.00206238 -16.90696716 0.91659546 C-11.25449433 0.21725935 -5.69208613 0.0073427 0 0 Z " fill="#EEEEEE" transform="translate(530.90625,28.83203125)"/>
<path d="M0 0 C2.97259551 1.8637702 5.23472548 3.82977285 7.4609375 6.54296875 C8.1621875 7.34734375 8.8634375 8.15171875 9.5859375 8.98046875 C14.07011433 15.10884375 15.01604525 19.93520969 14.9609375 27.35546875 C14.95449219 28.25040039 14.94804687 29.14533203 14.94140625 30.06738281 C14.75753384 36.67469257 13.95391499 41.47201115 9.4609375 46.54296875 C8.86796875 47.25582031 8.275 47.96867187 7.6640625 48.703125 C-1.36066862 58.64837869 -14.88436997 61.38671815 -27.80078125 62.93359375 C-33.75443916 63.16609364 -38.69684358 62.17159897 -43.5390625 58.54296875 C-45.77029641 55.19611788 -45.80265989 54.05541793 -45.84545898 50.14111328 C-45.86144638 49.03631622 -45.87743378 47.93151917 -45.89390564 46.79324341 C-45.89926834 45.5994809 -45.90463104 44.40571838 -45.91015625 43.17578125 C-45.91918472 41.94890594 -45.9282132 40.72203064 -45.93751526 39.45797729 C-45.95203444 36.86051887 -45.96090862 34.26302373 -45.96459961 31.66552734 C-45.97649521 27.69045414 -46.02566842 23.71693292 -46.07617188 19.7421875 C-46.08563579 17.22005967 -46.09287097 14.69792229 -46.09765625 12.17578125 C-46.11718857 10.9860672 -46.13672089 9.79635315 -46.15684509 8.57058716 C-46.1116902 0.31558407 -46.1116902 0.31558407 -43.16088867 -3.66577148 C-30.71406113 -12.16957758 -12.19803351 -6.6222568 0 0 Z M-44.5390625 0.54296875 C-45.0073727 2.98568977 -45.0073727 2.98568977 -44.95898438 5.76123047 C-44.97489624 6.82598602 -44.99080811 7.89074158 -45.00720215 8.98776245 C-45.00740356 10.1377774 -45.00760498 11.28779236 -45.0078125 12.47265625 C-45.01542603 13.65513947 -45.02303955 14.83762268 -45.03088379 16.05593872 C-45.04169747 18.55924364 -45.04453278 21.06259373 -45.04003906 23.56591797 C-45.039068 27.39627462 -45.08065342 31.22462088 -45.125 35.0546875 C-45.13020772 37.4856729 -45.13289518 39.91666527 -45.1328125 42.34765625 C-45.14920776 43.49362274 -45.16560303 44.63958923 -45.18249512 45.82028198 C-45.31182095 52.3531063 -45.31182095 52.3531063 -42.12695312 57.74267578 C-36.03189116 61.98276889 -28.63142641 61.32381395 -21.47558594 60.2265625 C-8.69524595 57.74166393 3.15351891 53.75142556 10.77734375 42.62109375 C14.48920509 35.74057029 14.48554757 28.14541906 13.4609375 20.54296875 C10.59127022 11.66018239 6.09770176 5.73774719 -1.9375 1.18359375 C-13.42891785 -4.54526559 -34.86259249 -11.61038616 -44.5390625 0.54296875 Z " fill="#F2F2F2" transform="translate(393.5390625,89.45703125)"/>
<path d="M0 0 C0.83998535 0.01329346 1.6799707 0.02658691 2.54541016 0.0402832 C11.01654971 0.35987252 19.75377949 2.1535794 26.125 8.1875 C27.053125 9.3940625 27.053125 9.3940625 28 10.625 C28.556875 11.24375 29.11375 11.8625 29.6875 12.5 C33.04740288 17.93984275 33.96936042 24.37007434 33 30.625 C30.61532023 37.86777159 26.60075015 43.70612944 20 47.625 C10.13487008 51.76516038 -1.47196938 54.01861123 -11.75 50.25 C-15.06611767 46.38119605 -15.4222273 42.58484099 -16 37.625 C-16.10957031 36.92761719 -16.21914063 36.23023438 -16.33203125 35.51171875 C-17.5015487 27.73052935 -17.18133159 20.60889846 -15.8125 12.875 C-15.59207031 11.62203125 -15.37164063 10.3690625 -15.14453125 9.078125 C-12.44037667 0.91951528 -7.80303423 -0.22040285 0 0 Z M-13 6.625 C-14.21397767 10.266933 -14.18126468 13.63981754 -14.203125 17.43359375 C-14.20882507 18.19672379 -14.21452515 18.95985382 -14.22039795 19.74610901 C-14.22983641 21.35912697 -14.23637735 22.97216411 -14.24023438 24.58520508 C-14.24995066 27.04998382 -14.28098799 29.51393215 -14.3125 31.97851562 C-14.31902943 33.54687006 -14.32428014 35.11523044 -14.328125 36.68359375 C-14.3404718 37.41911972 -14.3528186 38.15464569 -14.36553955 38.91246033 C-14.35188363 42.05554459 -14.19054618 44.27709617 -12.66699219 47.05883789 C-8.43473791 51.03509905 -1.56315525 49.92497561 3.90234375 49.84375 C12.07728231 49.54368343 19.53314632 47.12918115 25.40234375 41.2109375 C30.660386 35.26706366 31.40106435 30.20428175 31.25 22.5 C30.70236937 16.20224776 27.55159362 12.73253571 23 8.625 C16.23110443 3.13745915 8.65548382 2.3279234 0.1875 2.1875 C-0.54170654 2.16534424 -1.27091309 2.14318848 -2.0222168 2.12036133 C-6.96639384 2.14026771 -9.5892469 3.03234006 -13 6.625 Z " fill="#EBEBEB" transform="translate(555,80.375)"/>
<path d="M0 0 C0.7109375 1.5625 0.7109375 1.5625 1 4 C-0.03515903 6.4519968 -1.10279962 8.67896267 -2.375 11 C-9.98744676 25.21386544 -8.21284507 42.04744276 -8.24023438 57.80200195 C-8.24992984 61.16317598 -8.28104026 64.52373446 -8.3125 67.88476562 C-9.03339403 94.41309679 -9.03339403 94.41309679 1.5625 117.78515625 C12.2170406 127.82311464 26.75055333 127.85453103 40.578125 128.71484375 C45.77677886 129.1480649 50.87707451 130.03358732 56 131 C56 131.33 56 131.66 56 132 C38.00572822 132.52837992 15.77192293 132.58013244 1 121 C-6.66744522 113.61347411 -9.71414028 102.19877362 -10.12698364 91.80218506 C-10.12777924 90.65542297 -10.12857483 89.50866089 -10.12939453 88.32714844 C-10.13254669 87.01848816 -10.13569885 85.70982788 -10.13894653 84.36151123 C-10.13715572 82.94413214 -10.13510451 81.52675337 -10.1328125 80.109375 C-10.13348716 78.63975 -10.13445853 77.17012511 -10.13571167 75.70050049 C-10.13718288 72.62405329 -10.13505388 69.54763521 -10.13037109 66.47119141 C-10.12469431 62.55329931 -10.12794344 58.63547605 -10.13394356 54.71758652 C-10.137582 51.68216446 -10.13639526 48.64675833 -10.13381577 45.61133575 C-10.1331545 44.16823569 -10.13394652 42.72513413 -10.13629532 41.28203583 C-10.16473008 18.89041833 -10.16473008 18.89041833 -5 9.5 C-4.44699219 8.448125 -4.44699219 8.448125 -3.8828125 7.375 C-2.93505106 5.57632866 -1.9688664 3.78739146 -1 2 C-0.67 1.34 -0.34 0.68 0 0 Z " fill="#EDEDED" transform="translate(483,157)"/>
<path d="M0 0 C1.32451172 0.02707031 1.32451172 0.02707031 2.67578125 0.0546875 C3.67158203 0.08949219 3.67158203 0.08949219 4.6875 0.125 C4.6875 0.455 4.6875 0.785 4.6875 1.125 C3.40552734 1.30675781 3.40552734 1.30675781 2.09765625 1.4921875 C0.44056641 1.74355469 0.44056641 1.74355469 -1.25 2 C-2.35214844 2.16242188 -3.45429688 2.32484375 -4.58984375 2.4921875 C-5.48832031 2.70101562 -6.38679688 2.90984375 -7.3125 3.125 C-8.89099571 6.28199142 -8.56993716 9.70337213 -8.671875 13.17578125 C-8.73589875 14.84183874 -8.80104132 16.50785355 -8.8671875 18.17382812 C-8.9674507 20.788702 -9.06152247 23.40304842 -9.13574219 26.01879883 C-9.70271547 45.27195972 -14.57002716 58.08125878 -28.3125 72.125 C-40.52994698 82.38912967 -54.45726544 84.88373501 -70.21875 83.875 C-78.0422507 82.98452025 -85.12513277 81.35082624 -92.3125 78.125 C-93.07949219 77.78855469 -93.84648437 77.45210938 -94.63671875 77.10546875 C-102.23997629 73.35028221 -108.62595763 67.15481356 -113.3125 60.125 C-112.9825 59.135 -112.6525 58.145 -112.3125 57.125 C-111.9 57.69347656 -111.4875 58.26195312 -111.0625 58.84765625 C-102.33065311 70.52260332 -92.58841998 77.64675611 -78.12890625 80.6171875 C-61.15644079 82.87555036 -44.46829693 81.6654675 -30.3125 71.125 C-19.98881502 62.77372638 -14.22528076 51.06209965 -12.3125 38.125 C-12.10209024 35.30236262 -11.92147883 32.48984738 -11.77734375 29.6640625 C-11.73436661 28.87349457 -11.69138947 28.08292664 -11.64710999 27.2684021 C-11.51159774 24.76242502 -11.38072846 22.25623072 -11.25 19.75 C-11.15851053 18.04295225 -11.06671683 16.33592077 -10.97460938 14.62890625 C-10.75038554 10.46111759 -10.5303232 6.29312788 -10.3125 2.125 C-6.64745279 0.5730606 -3.99541448 -0.10654439 0 0 Z " fill="#EFEFEF" transform="translate(382.3125,224.875)"/>
<path d="M0 0 C3.04935129 0.71632396 6.0983563 1.0569846 9.20703125 1.4375 C28.9566402 4.27690065 46.61118781 14.32332946 60.39453125 28.5625 C61.16152344 29.284375 61.92851563 30.00625 62.71875 30.75 C67.0642751 34.86258568 70.75160921 39.14959236 73.39453125 44.5625 C73.39453125 45.2225 73.39453125 45.8825 73.39453125 46.5625 C72.73453125 46.5625 72.07453125 46.5625 71.39453125 46.5625 C69.984375 44.7265625 69.984375 44.7265625 68.33203125 42.1875 C61.66832728 32.45986616 54.27825274 25.00840532 44.39453125 18.5625 C43.44578125 17.94375 42.49703125 17.325 41.51953125 16.6875 C28.94530568 8.92893528 15.85324484 5.58075195 1.39453125 3.5625 C0.29592773 3.39621094 -0.80267578 3.22992187 -1.93457031 3.05859375 C-13.48366288 1.43519189 -24.95572743 1.12919955 -36.60546875 0.9375 C-38.55600477 0.89920329 -40.506526 0.86014538 -42.45703125 0.8203125 C-47.17305313 0.7256258 -51.88915326 0.64114789 -56.60546875 0.5625 C-56.60546875 0.2325 -56.60546875 -0.0975 -56.60546875 -0.4375 C-51.73493684 -0.58254356 -46.86433403 -0.72482227 -41.99365234 -0.86474609 C-40.34324057 -0.9125237 -38.69284896 -0.96100398 -37.04248047 -1.01025391 C-7.11788716 -1.90162477 -7.11788716 -1.90162477 0 0 Z " fill="#F2F2F2" transform="translate(584.60546875,10.4375)"/>
<path d="M0 0 C1.39062337 0.00503143 2.78124852 0.0095914 4.171875 0.01367188 C7.53129705 0.02533653 10.89062419 0.04170386 14.25 0.0625 C14.25 0.3925 14.25 0.7225 14.25 1.0625 C13.32441284 1.08437378 13.32441284 1.08437378 12.38012695 1.10668945 C-28.00698997 2.1629277 -63.05296873 10.67233116 -92.46875 39.75 C-98.67891537 46.34350891 -103.7850336 53.51910902 -108.75 61.0625 C-110.46017726 58.4972341 -111.65417811 56.18289035 -112.875 53.375 C-113.22820313 52.56675781 -113.58140625 51.75851563 -113.9453125 50.92578125 C-114.21085938 50.31089844 -114.47640625 49.69601563 -114.75 49.0625 C-111.06197956 50.29184015 -110.02643027 52.00109378 -107.75 55.0625 C-107.27691406 54.45664062 -106.80382812 53.85078125 -106.31640625 53.2265625 C-86.04998205 27.54785737 -58.79044298 5.03598033 -25.15429688 0.73022461 C-16.77523939 -0.07137942 -8.40943161 -0.05367291 0 0 Z " fill="#F4F5F5" transform="translate(771.75,7.9375)"/>
<path d="M0 0 C2.56616632 3.84924948 2.55097676 6.4349304 3 11 C1 9 1 9 0 6 C-3.44770515 8.10225924 -6.2862642 10.18913064 -9.0625 13.125 C-26.88210776 31.37352611 -51.32243735 42.7009798 -76 48 C-76.64001953 48.14808105 -77.28003906 48.29616211 -77.93945312 48.44873047 C-89.3582116 51.02099687 -100.78265628 51.28931968 -112.4375 51.3125 C-113.53198959 51.31787781 -113.53198959 51.31787781 -114.64859009 51.32336426 C-123.59899091 51.3470176 -132.20372299 50.83663152 -141 49 C-141 48.67 -141 48.34 -141 48 C-140.1234375 48.0721875 -139.246875 48.144375 -138.34375 48.21875 C-92.66975391 51.56074971 -49.11720648 44.50323626 -13.51977539 14.13037109 C-8.59025282 9.79140053 -4.223 5.0304987 0 0 Z " fill="#F0F0F0" transform="translate(262,261)"/>
<path d="M0 0 C1 3 1 3 -0.1171875 5.56640625 C-4.38643312 12.84309824 -9.05127128 19.02086891 -15 25 C-15.66386719 25.69867188 -16.32773437 26.39734375 -17.01171875 27.1171875 C-40.22825961 49.84728656 -78.82392852 50.27077233 -109 50 C-109 49.67 -109 49.34 -109 49 C-105.90125316 48.67799361 -102.80246687 48.35637821 -99.70361328 48.03540039 C-97.05077691 47.76002569 -94.39811025 47.48335062 -91.74560547 47.20483398 C-85.88335178 46.59158451 -80.02261933 45.98612911 -74.1484375 45.49609375 C-49.81119101 43.43576121 -26.32538518 36.15340466 -10 17 C-6.11106707 11.64649635 -2.76256665 6.01264506 0 0 Z " fill="#F3F3F3" transform="translate(651,239)"/>
<path d="M0 0 C1.00166319 2.60912268 1.12220063 3.69475408 0.06640625 6.33203125 C-6.00609676 16.34771802 -12.49468035 22.12003377 -24 25 C-27.70412499 25.64117283 -31.39543638 26.1679208 -35.12890625 26.60546875 C-37.93718904 26.83472507 -37.93718904 26.83472507 -40 28 C-39.113125 28.556875 -38.22625 29.11375 -37.3125 29.6875 C-28.99388525 35.27870008 -21.7886003 44.17487369 -19.53125 54.05078125 C-18.10274916 63.18994006 -20.12667351 73.1090265 -25 81 C-26.485 81.99 -26.485 81.99 -28 83 C-27.04854705 80.5613661 -26.08221292 78.16772636 -24.9296875 75.81640625 C-21.13695187 67.71118974 -20.17762361 59.19468086 -23.17578125 50.6484375 C-27.30410566 42.05042852 -32.28320718 36.09568584 -40.0625 30.75 C-40.97999023 30.1003125 -40.97999023 30.1003125 -41.91601562 29.4375 C-44.84541899 27.38533419 -47.7318167 25.46701495 -51 24 C-48.50376902 22.75188451 -46.94587877 22.94613814 -44.16015625 23.04296875 C-29.04751453 23.78735987 -29.04751453 23.78735987 -15 19 C-13.90558594 18.38125 -13.90558594 18.38125 -12.7890625 17.75 C-6.38788981 13.56187214 -2.39833639 7.19500918 0 0 Z " fill="#EEEEEE" transform="translate(239,151)"/>
<path d="M0 0 C-3.47963065 2.31975376 -4.33478843 2.11889729 -8.375 1.875 C-27.95778269 1.65765502 -48.73981951 7.87449605 -65.02734375 18.7734375 C-67.26344911 20.16380796 -69.53656029 21.083172 -72 22 C-72 22.66 -72 23.32 -72 24 C-73.58066374 25.22606617 -75.21763517 26.37978665 -76.875 27.5 C-84.22272162 32.7172611 -90.85435482 38.67735566 -96 46.125 C-96.66 47.07375 -97.32 48.0225 -98 49 C-98.66 49 -99.32 49 -100 49 C-100.20625 49.66 -100.4125 50.32 -100.625 51 C-102.51152871 55.11606263 -105.20567979 58.4587703 -108 62 C-108.33 61.34 -108.66 60.68 -109 60 C-103.0418509 50.87888286 -96.55709477 42.83949741 -89 35 C-88.33355469 34.27039062 -87.66710937 33.54078125 -86.98046875 32.7890625 C-81.38079962 26.82394128 -74.8275991 22.41832908 -68 18 C-67.07574219 17.3915625 -66.15148437 16.783125 -65.19921875 16.15625 C-44.63830549 3.3602078 -23.83016878 -0.70627284 0 0 Z " fill="#ECECEC" transform="translate(149,24)"/>
<path d="M0 0 C-0.33 0.66 -0.66 1.32 -1 2 C-2.28132812 1.91621094 -3.56265625 1.83242188 -4.8828125 1.74609375 C-39.50395126 -0.37048242 -67.11416693 8.59879351 -93.1875 31.5 C-97.14597764 35.10030025 -100.63782691 38.84152275 -104 43 C-104 38.8919737 -101.86203482 37.2148502 -99.1875 34.375 C-98.68976074 33.84229492 -98.19202148 33.30958984 -97.67919922 32.76074219 C-71.79966545 5.58519397 -36.56852295 -4.6312719 0 0 Z " fill="#E6E6E6" transform="translate(789,27)"/>
<path d="M0 0 C0.33 0 0.66 0 1 0 C1.02578125 0.79921875 1.0515625 1.5984375 1.078125 2.421875 C1.70262006 14.51437028 5.1854585 24.01045854 10.92578125 34.6015625 C11.28027344 35.39304688 11.63476562 36.18453125 12 37 C11.505 37.99 11.505 37.99 11 39 C10.35998047 38.27296875 10.35998047 38.27296875 9.70703125 37.53125 C2.11728035 29.39378512 -8.28318369 21.47724545 -19.7265625 20.76953125 C-21.01304688 20.78371094 -22.29953125 20.79789063 -23.625 20.8125 C-24.91664062 20.81894531 -26.20828125 20.82539062 -27.5390625 20.83203125 C-30.24521308 20.96336813 -32.44029626 21.18791125 -35 22 C-34.505 20.515 -34.505 20.515 -34 19 C-25.08459211 15.81592575 -16.55053929 17.22216739 -8 21 C-3.92240336 23.2111605 0.05386382 25.56287698 4 28 C3.54625 27.071875 3.0925 26.14375 2.625 25.1875 C-0.88334343 16.90112695 -1.4146272 8.81274514 0 0 Z " fill="#EAEBEB" transform="translate(115,89)"/>
<path d="M0 0 C0.66 0 1.32 0 2 0 C2.99 2.475 2.99 2.475 4 5 C3.41089844 5.23332031 2.82179688 5.46664063 2.21484375 5.70703125 C-0.53565198 7.31269983 -1.68245995 9.04075369 -3.4375 11.6875 C-4.0459375 12.5846875 -4.654375 13.481875 -5.28125 14.40625 C-6.2866633 15.92351007 -7.28844027 17.44321309 -8.28125 18.96875 C-20.07933359 36.50644182 -42.37061856 45.63187104 -62 51 C-62.7115625 51.20625 -63.423125 51.4125 -64.15625 51.625 C-66.39074914 52.0794744 -68.47191826 52.0960012 -70.75 52.0625 C-71.54921875 52.05347656 -72.3484375 52.04445313 -73.171875 52.03515625 C-73.77515625 52.02355469 -74.3784375 52.01195312 -75 52 C-72.23378857 50.49843159 -69.76958685 49.62001346 -66.68359375 49.02734375 C-44.55352595 44.46889896 -22.68450256 35.19634018 -9.02734375 16.265625 C-5.61957577 11.02735744 -2.66466061 5.64908049 0 0 Z " fill="#ECECEC" transform="translate(665,253)"/>
<path d="M0 0 C4.13306723 3.41427293 7.92199589 6.93402674 11.625 10.8125 C31.69353374 30.94120926 59.04674653 39.7006874 86 46 C86 46.33 86 46.66 86 47 C79.84259226 47.36121219 74.69394564 46.06482499 68.8125 44.3125 C67.87704346 44.03776855 66.94158691 43.76303711 65.9777832 43.47998047 C59.09821792 41.41820012 52.49614132 39.07984389 46 36 C45.39913574 35.72462402 44.79827148 35.44924805 44.17919922 35.16552734 C33.94595384 30.45716612 24.95570926 24.81360042 16 18 C15.21109375 17.44957031 14.4221875 16.89914062 13.609375 16.33203125 C13.07828125 15.89246094 12.5471875 15.45289063 12 15 C12 14.34 12 13.68 12 13 C11.42765625 12.7628125 10.8553125 12.525625 10.265625 12.28125 C7.5120708 10.72406762 5.83204366 8.87507203 3.75 6.5 C3.04359375 5.7059375 2.3371875 4.911875 1.609375 4.09375 C0 2 0 2 0 0 Z " fill="#F0F0F0" transform="translate(35,262)"/>
<path d="M0 0 C0.33 0 0.66 0 1 0 C1.07476562 0.93714844 1.14953125 1.87429687 1.2265625 2.83984375 C2.93999335 21.38328532 7.09524421 40.08838305 15 57 C15.30164062 57.65258789 15.60328125 58.30517578 15.9140625 58.97753906 C19.81208801 67.34007143 24.11141134 75.09348967 29.43359375 82.64453125 C31 85 31 85 32 88 C25.02688094 85.67562698 21.39350886 75.87620768 18.20703125 69.61328125 C8.58788436 50.16859591 -0.27244614 28.60684423 -0.0625 6.5625 C-0.05347656 5.32628906 -0.04445312 4.09007812 -0.03515625 2.81640625 C-0.02355469 1.88699219 -0.01195312 0.95757812 0 0 Z " fill="#E4E4E4" transform="translate(3,174)"/>
<path d="M0 0 C0.95261719 -0.00515625 1.90523438 -0.0103125 2.88671875 -0.015625 C5.3125 0.25 5.3125 0.25 7.3125 2.25 C6.00925781 2.30607422 6.00925781 2.30607422 4.6796875 2.36328125 C-5.42727142 2.85226122 -5.42727142 2.85226122 -13.6875 8.25 C-14.00772046 10.6066442 -14.00772046 10.6066442 -13.97802734 13.37060547 C-13.99078705 14.43866425 -14.00354675 15.50672302 -14.01669312 16.60714722 C-14.01891876 17.76546051 -14.02114441 18.9237738 -14.0234375 20.1171875 C-14.0300943 21.30345734 -14.0367511 22.48972717 -14.04360962 23.71194458 C-14.05375071 26.22542771 -14.05842619 28.73893784 -14.05810547 31.25244141 C-14.06247428 35.10233907 -14.09876888 38.95108694 -14.13671875 42.80078125 C-14.14258736 45.2395794 -14.14655646 47.67838301 -14.1484375 50.1171875 C-14.16280853 51.27145233 -14.17717957 52.42571716 -14.19198608 53.61495972 C-14.18583282 54.68932281 -14.17967957 55.76368591 -14.17333984 56.87060547 C-14.17618988 57.81499481 -14.17903992 58.75938416 -14.18197632 59.73239136 C-13.54127547 62.99449701 -12.21653084 64.165706 -9.6875 66.25 C-6.64536733 67.77106634 -3.40702428 67.62429338 -0.0625 67.8125 C0.99710937 67.87727539 0.99710937 67.87727539 2.078125 67.94335938 C3.82268537 68.04944751 5.56756697 68.15022889 7.3125 68.25 C4.76843438 70.79406562 3.71998394 70.57580106 0.1875 70.625 C-5.1605204 70.53364091 -9.37108123 69.48460956 -13.6875 66.25 C-15.91873391 62.90314913 -15.95109739 61.76244918 -15.99389648 57.84814453 C-16.00988388 56.74334747 -16.02587128 55.63855042 -16.04234314 54.50027466 C-16.04770584 53.30651215 -16.05306854 52.11274963 -16.05859375 50.8828125 C-16.06762222 49.65593719 -16.0766507 48.42906189 -16.08595276 47.16500854 C-16.10047194 44.56755012 -16.10934612 41.97005498 -16.11303711 39.37255859 C-16.12493271 35.39748539 -16.17410592 31.42396417 -16.22460938 27.44921875 C-16.23407329 24.92709092 -16.24130847 22.40495354 -16.24609375 19.8828125 C-16.26562607 18.69309845 -16.28515839 17.5033844 -16.30528259 16.27761841 C-16.2601217 8.0215188 -16.2601217 8.0215188 -13.30615234 4.04150391 C-8.82145509 0.97337893 -5.43052093 -0.02963449 0 0 Z " fill="#FAFAFA" transform="translate(363.6875,81.75)"/>
<path d="M0 0 C1.25135653 3.75406959 1.08551394 7.21558816 1.02734375 11.12109375 C1.01287316 12.78677913 0.99897894 14.45246959 0.9855957 16.11816406 C0.97726715 16.98799927 0.9689386 17.85783447 0.96035767 18.75402832 C0.33991893 45.22268746 0.33991893 45.22268746 5.51171875 71.00390625 C6 73 6 73 5 76 C-3.66597105 56.19206618 -2.17930334 32.89657275 -1.91333008 11.75244141 C-1.80647266 9.03801973 -1.80647266 9.03801973 -3 7 C-4.98 7.33 -6.96 7.66 -9 8 C-6.17493137 5.0702992 -3.21203935 2.49825283 0 0 Z " fill="#F0F0F0" transform="translate(455,201)"/>
<path d="M0 0 C0.33 0 0.66 0 1 0 C1 17.82 1 35.64 1 54 C0.34 53.67 -0.32 53.34 -1 53 C-2.18034312 48.95851638 -2.12908654 44.97127516 -2.1328125 40.78515625 C-2.13376923 40.09296494 -2.13472595 39.40077362 -2.13571167 38.68760681 C-2.13639032 37.22264515 -2.13455806 35.75768044 -2.13037109 34.29272461 C-2.12509194 32.10067575 -2.1302883 29.90883878 -2.13671875 27.71679688 C-2.14150358 18.80630426 -2.07932538 9.85671769 -1 1 C-0.67 0.67 -0.34 0.34 0 0 Z " fill="#E0E0E0" transform="translate(283,211)"/>
<path d="M0 0 C1.60294922 0.20689453 1.60294922 0.20689453 3.23828125 0.41796875 C4.04652344 0.54816406 4.85476563 0.67835937 5.6875 0.8125 C5.6875 1.1425 5.6875 1.4725 5.6875 1.8125 C4.93984375 1.84988281 4.1921875 1.88726562 3.421875 1.92578125 C2.43703125 1.99152344 1.4521875 2.05726562 0.4375 2.125 C-0.53703125 2.18300781 -1.5115625 2.24101563 -2.515625 2.30078125 C-5.61987163 2.86873699 -7.0568542 3.6344567 -9.3125 5.8125 C-10.53568866 9.48206597 -10.54366124 12.93571003 -10.62890625 16.76171875 C-10.64968735 17.53433548 -10.67046844 18.30695221 -10.69187927 19.10298157 C-10.75721038 21.5685648 -10.81618315 24.03425361 -10.875 26.5 C-10.91820087 28.17253691 -10.96181566 29.84506319 -11.00585938 31.51757812 C-11.1128749 35.6157775 -11.21418857 39.71408296 -11.3125 43.8125 C-11.6425 43.8125 -11.9725 43.8125 -12.3125 43.8125 C-14.28603681 30.43826394 -15.66319844 17.93883933 -11.3125 4.8125 C-7.81715551 0.14178439 -5.73975748 -0.81996535 0 0 Z " fill="#D8D8D8" transform="translate(552.3125,81.1875)"/>
<path d="M0 0 C12.67379226 -0.24534205 12.67379226 -0.24534205 18.79302979 1.5456543 C19.78045166 1.8240918 20.76787354 2.1025293 21.78521729 2.3894043 C22.84095947 2.71424805 22.84095947 2.71424805 23.91802979 3.0456543 C23.91802979 3.3756543 23.91802979 3.7056543 23.91802979 4.0456543 C22.45981498 4.07357756 21.00142735 4.09244848 19.54302979 4.1081543 C18.73092041 4.11975586 17.91881104 4.13135742 17.08209229 4.14331055 C14.46414867 4.06250982 11.95457246 3.84800686 9.35552979 3.55932617 C4.15158299 3.02887886 -1.01827655 2.83000951 -6.24603271 2.72924805 C-7.16411713 2.70846695 -8.08220154 2.68768585 -9.02810669 2.66627502 C-11.92099537 2.60161474 -14.81396385 2.54228883 -17.70697021 2.4831543 C-19.68484259 2.43988935 -21.66270731 2.39627272 -23.64056396 2.35229492 C-28.45428718 2.24602086 -33.26808951 2.1445261 -38.08197021 2.0456543 C-38.08197021 1.7156543 -38.08197021 1.3856543 -38.08197021 1.0456543 C-33.2114383 0.90061074 -28.3408355 0.75833203 -23.47015381 0.6184082 C-21.81974204 0.57063059 -20.16935043 0.52215032 -18.51898193 0.47290039 C-12.34645991 0.28903803 -6.17375646 0.13538066 0 0 Z " fill="#CCCCCC" transform="translate(566.0819702148438,8.954345703125)"/>
<path d="M0 0 C8.84037526 4.79906086 15.82574538 13.47723615 19 23 C21.22547745 32.73646385 19.25373106 43.49306893 14 52 C13.01 52.66 12.02 53.32 11 54 C11.95145295 51.5613661 12.91778708 49.16772636 14.0703125 46.81640625 C17.86304813 38.71118974 18.82237639 30.19468086 15.82421875 21.6484375 C12.48985011 14.70399015 8.67701353 9.11735643 2.6875 4.25 C1.800625 3.5075 0.91375 2.765 0 2 C0 1.34 0 0.68 0 0 Z " fill="#EFEFEF" transform="translate(200,180)"/>
<path d="M0 0 C0 0.33 0 0.66 0 1 C-1.41539062 1.11214844 -1.41539062 1.11214844 -2.859375 1.2265625 C-14.01639951 2.36914935 -23.39367799 4.85724644 -31.5 13.1875 C-37.63697356 20.79173335 -39.58376856 29.40586525 -40 39 C-40.33 39 -40.66 39 -41 39 C-41.67882765 28.02561968 -39.78872801 19.56938079 -32.83203125 10.88671875 C-23.06148721 0.82451668 -13.48884142 -0.33675332 0 0 Z " fill="#F5F5F5" transform="translate(155,60)"/>
<path d="M0 0 C1.39062337 0.00503143 2.78124852 0.0095914 4.171875 0.01367188 C7.53129705 0.02533653 10.89062419 0.04170386 14.25 0.0625 C14.25 0.3925 14.25 0.7225 14.25 1.0625 C13.32441284 1.08437378 13.32441284 1.08437378 12.38012695 1.10668945 C-5.07919758 1.56330057 -23.05634696 2.08595434 -39.7890625 7.609375 C-41.75 8.0625 -41.75 8.0625 -44.75 7.0625 C-42.04006216 4.35256216 -39.5694677 3.99350205 -35.875 3 C-34.64007812 2.65839844 -33.40515625 2.31679687 -32.1328125 1.96484375 C-21.62425178 -0.44645158 -10.71252957 -0.06837236 0 0 Z " fill="#FAFBFB" transform="translate(771.75,7.9375)"/>
<path d="M0 0 C0.66 0 1.32 0 2 0 C2.30292969 1.26714844 2.60585937 2.53429687 2.91796875 3.83984375 C5.95733293 16.53204139 5.95733293 16.53204139 12 28 C12.39703125 28.61359375 12.7940625 29.2271875 13.203125 29.859375 C14.11219413 31.25498817 15.05193763 32.63057657 16 34 C11.48275919 32.49425306 9.22000659 28.98667849 7 25 C4.60443765 19.48416737 2.31675388 13.88245483 1 8 C0.80664062 8.71027344 0.61328125 9.42054688 0.4140625 10.15234375 C0.15367187 11.07144531 -0.10671875 11.99054688 -0.375 12.9375 C-0.63023437 13.85402344 -0.88546875 14.77054688 -1.1484375 15.71484375 C-2 18 -2 18 -4 19 C-3.566875 17.081875 -3.566875 17.081875 -3.125 15.125 C-2.00617536 10.09828073 -0.9916404 5.05314632 0 0 Z " fill="#EDEDED" transform="translate(149,204)"/>
<path d="M0 0 C0 0.33 0 0.66 0 1 C-2.35441716 0.85758352 -4.70847484 0.71115192 -7.0625 0.5625 C-8.37347656 0.48128906 -9.68445313 0.40007813 -11.03515625 0.31640625 C-13.46261434 0.12268792 -15.88730947 -0.13464803 -18.29492188 -0.5 C-21.96947137 -0.99588016 -25.54117044 -1.20509954 -29.24609375 -1.31640625 C-29.90207047 -1.33718735 -30.55804718 -1.35796844 -31.23390198 -1.37937927 C-33.30167546 -1.44405938 -35.36956101 -1.50337466 -37.4375 -1.5625 C-38.85092242 -1.60576307 -40.26433407 -1.64937965 -41.67773438 -1.69335938 C-45.11837471 -1.79965516 -48.55913692 -1.90114472 -52 -2 C-52 -2.33 -52 -2.66 -52 -3 C-14.77273827 -5.07314338 -14.77273827 -5.07314338 0 0 Z " fill="#D7D7D7" transform="translate(814,12)"/>
<path d="M0 0 C4.58642564 0.44384764 9.00962497 0.96613358 13.5 2 C18.94743153 3.15629443 24.3866759 3.41522307 29.93554688 3.65820312 C34.02982718 3.8437903 37.9728868 4.23383538 42 5 C42 5.33 42 5.66 42 6 C27.67094495 6.36726679 13.76048957 6.58682986 0 2 C0 1.34 0 0.68 0 0 Z " fill="#EAEAEA" transform="translate(742,285)"/>
<path d="M0 0 C10.75352983 -0.66930684 20.67549 -0.27238435 29.8125 6.3046875 C31.125 7.5625 31.125 7.5625 33 10 C33.5775 10.66 34.155 11.32 34.75 12 C36.20016973 14.32027158 36.62595042 16.30684304 37 19 C36.34 19 35.68 19 35 19 C34.4121875 17.6696875 34.4121875 17.6696875 33.8125 16.3125 C30.10508108 9.53687232 25.24632268 6.19074872 18 4 C12.04603804 2.7331426 6.02406783 1.85779607 0 1 C0 0.67 0 0.34 0 0 Z " fill="#EDEEEE" transform="translate(550,81)"/>
<path d="M0 0 C10.42144635 4.38069647 15.77707585 18.18760933 20 28 C23.55223881 37.18046133 23.55223881 37.18046133 22 42 C19.96632849 38.94949273 19.52353648 37.21405006 18.8125 33.6875 C16.17838206 22.79542233 10.95387819 13.46867883 3.69921875 4.98828125 C2 3 2 3 0 0 Z " fill="#EAEAEA" transform="translate(626,49)"/>
<path d="M0 0 C0.83853516 -0.02449219 1.67707031 -0.04898438 2.54101562 -0.07421875 C8.47498436 -0.10201251 11.96047022 0.91752712 16.8125 4.375 C18.34516582 7.44033164 17.91526471 10.64254272 17.875 14 C17.87048828 14.70640625 17.86597656 15.4128125 17.86132812 16.140625 C17.84953875 17.88545275 17.83160324 19.630237 17.8125 21.375 C17.4825 21.375 17.1525 21.375 16.8125 21.375 C16.77511719 20.56675781 16.73773437 19.75851563 16.69921875 18.92578125 C16.63347656 17.85714844 16.56773437 16.78851563 16.5 15.6875 C16.44199219 14.63175781 16.38398437 13.57601562 16.32421875 12.48828125 C15.76565675 9.09000707 14.88628317 7.10884717 12.8125 4.375 C9.95743951 3.42331317 7.90312718 3.1849054 4.92578125 3.05859375 C3.98798828 3.01669922 3.05019531 2.97480469 2.08398438 2.93164062 C1.10751953 2.89232422 0.13105469 2.85300781 -0.875 2.8125 C-1.86306641 2.76931641 -2.85113281 2.72613281 -3.86914062 2.68164062 C-6.30845546 2.57558346 -8.74787113 2.47352286 -11.1875 2.375 C-8.00559223 -0.80690777 -4.3291132 0.00650505 0 0 Z " fill="#FAFAFA" transform="translate(800.1875,181.625)"/>
<path d="M0 0 C0.495 0.99 0.495 0.99 1 2 C-12.11042464 8.05592096 -25.59997414 10.82155457 -40 10 C-40 9.67 -40 9.34 -40 9 C-39.11441406 8.90203125 -38.22882812 8.8040625 -37.31640625 8.703125 C-30.13539719 7.83632266 -23.10856933 6.70969421 -16.0625 5.0625 C-15.37808838 4.90491211 -14.69367676 4.74732422 -13.98852539 4.58496094 C-9.16123042 3.41803823 -4.62331515 1.81316605 0 0 Z " fill="#F4F4F4" transform="translate(818,280)"/>
<path d="M0 0 C2.45507481 2.46806462 4.4765625 4.92171193 4.4765625 8.484375 C3.8165625 8.484375 3.1565625 8.484375 2.4765625 8.484375 C1.9403125 7.63875 1.4040625 6.793125 0.8515625 5.921875 C-3.93775002 -1.52621028 -10.96241739 -6.39863361 -19.5234375 -8.515625 C-24.18865769 -9.08905831 -28.82630016 -9.38026081 -33.5234375 -9.515625 C-33.5234375 -9.845625 -33.5234375 -10.175625 -33.5234375 -10.515625 C-19.39828097 -12.46938497 -10.60532158 -9.39466844 0 0 Z " fill="#E3E3E3" transform="translate(177.5234375,71.515625)"/>
<path d="M0 0 C0.495 1.485 0.495 1.485 1 3 C-4.47562148 11.28145237 -12.28578315 16.87309942 -21.96484375 18.94921875 C-23.2875466 19.20333408 -24.61181642 19.44942336 -25.9375 19.6875 C-26.96327148 19.88182617 -26.96327148 19.88182617 -28.00976562 20.08007812 C-29.67183798 20.39389598 -31.33574127 20.69799166 -33 21 C-33.33 20.34 -33.66 19.68 -34 19 C-32.96101563 18.76925781 -31.92203125 18.53851563 -30.8515625 18.30078125 C-18.5946333 15.48120191 -8.68576018 12.64724575 -1 2 C-0.67 1.34 -0.34 0.68 0 0 Z " fill="#E8E8E8" transform="translate(404,130)"/>
<path d="M0 0 C-3.10091913 2.39549676 -6.31536885 4.52860291 -9.625 6.625 C-10.58664063 7.23601562 -11.54828125 7.84703125 -12.5390625 8.4765625 C-15 10 -15 10 -17 11 C-15.84826645 8.53199953 -14.95216435 6.95216435 -13 5 C-13.33 4.01 -13.66 3.02 -14 2 C-16.31 2 -18.62 2 -21 2 C-21 1.67 -21 1.34 -21 1 C-18.43761495 0.83138242 -15.87511576 0.66504227 -13.3125 0.5 C-12.59126953 0.45230469 -11.87003906 0.40460938 -11.12695312 0.35546875 C-7.41171286 0.11796481 -3.72305126 -0.05874637 0 0 Z " fill="#E1E1E1" transform="translate(113,174)"/>
<path d="M0 0 C4.57100746 0.52677038 7.71304472 2.50625435 11.375 5.125 C11.94790771 5.52952393 12.52081543 5.93404785 13.11108398 6.35083008 C19.69331073 11.08977188 24.78473568 16.08696651 29 23 C28.67 23.66 28.34 24.32 28 25 C27.33355469 24.154375 26.66710937 23.30875 25.98046875 22.4375 C18.51277172 13.16885864 10.85029315 6.22714852 0 1 C0 0.67 0 0.34 0 0 Z " fill="#EEEEEE" transform="translate(828,38)"/>
<path d="M0 0 C0 0.66 0 1.32 0 2 C-1.19496094 2.51949219 -2.38992187 3.03898438 -3.62109375 3.57421875 C-11.61359421 7.07272137 -19.48234383 10.54509264 -27 15 C-26.31167132 12.6865946 -25.46877094 11.31158005 -23.44775391 9.96826172 C-21.4266092 8.89916201 -19.38340932 7.90666315 -17.3125 6.9375 C-16.61705078 6.59912109 -15.92160156 6.26074219 -15.20507812 5.91210938 C-2.95774903 0 -2.95774903 0 0 0 Z " fill="#EEEEEE" transform="translate(98,12)"/>
<path d="M0 0 C1.32547852 0.02030273 1.32547852 0.02030273 2.67773438 0.04101562 C4.84792023 0.07620783 7.01779033 0.13001015 9.1875 0.1875 C9.5175 0.8475 9.8475 1.5075 10.1875 2.1875 C9.61306152 2.19160889 9.03862305 2.19571777 8.44677734 2.19995117 C5.81767353 2.23305997 3.19083471 2.30371693 0.5625 2.375 C-0.34113281 2.38080078 -1.24476563 2.38660156 -2.17578125 2.39257812 C-8.46355721 2.59911091 -11.4293669 3.6223431 -15.8125 8.1875 C-15.55827704 5.05208351 -15.30826168 3.61129627 -12.875 1.53125 C-8.54236269 -0.36980515 -4.67181657 -0.13586939 0 0 Z " fill="#FAFBFB" transform="translate(556.8125,175.8125)"/>
<path d="M0 0 C0 3.85832634 -1.06771653 4.45149693 -3.6875 7.1875 C-7.41159788 11.2224906 -10.24262946 15.26076938 -13 20 C-14.98 18.35 -16.96 16.7 -19 15 C-18.34 14.34 -17.68 13.68 -17 13 C-16.01 13.66 -15.02 14.32 -14 15 C-9.38 10.05 -4.76 5.1 0 0 Z " fill="#F9F9F9" transform="translate(478,21)"/>
<path d="M0 0 C0 0.66 0 1.32 0 2 C-6.52928054 3.06455661 -13.01413743 3.33937569 -19.6171875 3.60546875 C-24.47790459 3.81969488 -29.1969211 4.21688931 -34 5 C-31.18328105 2.18328105 -28.86155162 2.40492957 -24.9375 1.9375 C-24.25937256 1.85516113 -23.58124512 1.77282227 -22.88256836 1.68798828 C-20.92252198 1.45183812 -18.9612787 1.22568686 -17 1 C-16.10539063 0.88527344 -15.21078125 0.77054688 -14.2890625 0.65234375 C-9.4936849 0.05502479 -4.83230347 -0.08786006 0 0 Z " fill="#E6E6E6" transform="translate(529,29)"/>
<path d="M0 0 C0.69287109 0.00451172 1.38574219 0.00902344 2.09960938 0.01367188 C3.79561068 0.02536844 5.49156703 0.04330076 7.1875 0.0625 C7.1875 0.7225 7.1875 1.3825 7.1875 2.0625 C-0.15013707 3.23652193 -7.39415418 3.15627123 -14.8125 3.0625 C-10.85169363 -0.89830637 -5.29797047 -0.06590777 0 0 Z " fill="#F4F4F4" transform="translate(518.8125,8.9375)"/>
<path d="M0 0 C-5.00272171 1.63354178 -10.27683129 1.0192625 -15.46875 0.9375 C-18.25736658 0.98685605 -20.38008947 1.14451901 -23 2 C-22.67 1.01 -22.34 0.02 -22 -1 C-14.48705955 -3.68319302 -7.26056941 -3.51317875 0 0 Z " fill="#E3E3E3" transform="translate(103,109)"/>
<path d="M0 0 C2.57421875 0.94921875 2.57421875 0.94921875 4.57421875 3.94921875 C3.60742188 3.74425781 2.640625 3.53929687 1.64453125 3.328125 C-5.69745841 1.7992914 -12.92791256 0.46083803 -20.42578125 -0.05078125 C-13.54961387 -3.77043214 -7.27662251 -1.72557297 0 0 Z " fill="#EBEBEB" transform="translate(412.42578125,11.05078125)"/>
<path d="M0 0 C5.94 0.33 11.88 0.66 18 1 C18 1.33 18 1.66 18 2 C16.35 2 14.7 2 13 2 C13 2.66 13 3.32 13 4 C12.01 4.495 12.01 4.495 11 5 C11 5.99 11 6.98 11 8 C10.54109375 7.66226563 10.0821875 7.32453125 9.609375 6.9765625 C5.01807574 3.63691049 5.01807574 3.63691049 0 1 C0 0.67 0 0.34 0 0 Z " fill="#DDDDDD" transform="translate(188,174)"/>
<path d="M0 0 C0 0.33 0 0.66 0 1 C-8.71553604 0.31145453 -17.34331879 -0.79670963 -26 -2 C-18.44809464 -6.63493717 -7.74902471 -2.72587374 0 0 Z " fill="#E7E7E8" transform="translate(183,8)"/>
<path d="M0 0 C8.58077055 -0.24911914 16.58173087 0.30117812 25 2 C25 2.33 25 2.66 25 3 C16.40400201 3.22588024 8.39817396 2.91958262 0 1 C0 0.67 0 0.34 0 0 Z " fill="#F5F5F5" transform="translate(514,286)"/>
<path d="M0 0 C0.33 0.99 0.66 1.98 1 3 C-0.8125 5.6875 -0.8125 5.6875 -3 8 C-3.66 8 -4.32 8 -5 8 C-5.20625 8.66 -5.4125 9.32 -5.625 10 C-7.51152871 14.11606263 -10.20567979 17.4587703 -13 21 C-13.33 20.34 -13.66 19.68 -14 19 C-12.60784291 16.95574318 -11.21141633 14.91462445 -9.8125 12.875 C-9.42513672 12.30523437 -9.03777344 11.73546875 -8.63867188 11.1484375 C-5.95343625 7.24264023 -3.08177287 3.60178783 0 0 Z " fill="#F3F3F3" transform="translate(54,65)"/>
<path d="M0 0 C5.59363406 4.06133537 10.85963514 8.3791401 16 13 C15.67 13.66 15.34 14.32 15 15 C10.55673788 12.29069383 7.10146319 9.25987232 3.515625 5.48828125 C2.05074174 3.89721278 2.05074174 3.89721278 0 3 C0 2.01 0 1.02 0 0 Z " fill="#F9F9F9" transform="translate(804,96)"/>
<path d="M0 0 C0.99 0.33 1.98 0.66 3 1 C0.29259338 3.70740662 -2.2626766 4.1010554 -5.9375 5.125 C-7.18402344 5.47820312 -8.43054688 5.83140625 -9.71484375 6.1953125 C-13 7 -13 7 -16 7 C-16 6.34 -16 5.68 -16 5 C-15.01257813 4.72285156 -14.02515625 4.44570313 -13.0078125 4.16015625 C-11.71351203 3.79437568 -10.41924281 3.42848451 -9.125 3.0625 C-8.47402344 2.88009766 -7.82304688 2.69769531 -7.15234375 2.50976562 C-3.49203515 1.48107307 -3.49203515 1.48107307 0 0 Z " fill="#EAEAEA" transform="translate(608,278)"/>
<path d="M0 0 C1.40765625 0.09667969 1.40765625 0.09667969 2.84375 0.1953125 C5.5 0.875 5.5 0.875 9.5 4.875 C0.095 3.39 0.095 3.39 -9.5 1.875 C-5.46068918 -0.14465541 -4.28545078 -0.36496971 0 0 Z " fill="#EAEAEA" transform="translate(595.5,12.125)"/>
<path d="M0 0 C8.415 2.475 8.415 2.475 17 5 C17 5.66 17 6.32 17 7 C14.37271142 6.38357466 11.74846418 5.75732213 9.125 5.125 C8.37863281 4.95097656 7.63226563 4.77695312 6.86328125 4.59765625 C1.2265625 3.2265625 1.2265625 3.2265625 -1 1 C-0.67 0.67 -0.34 0.34 0 0 Z " fill="#E9E9E9" transform="translate(105,284)"/>
<path d="M0 0 C5.66442374 0.36504064 10.00703705 1.0554321 15 4 C11.23331402 5.3805087 8.55210827 4.59568159 4.75 3.5625 C3.13351562 3.13130859 3.13351562 3.13130859 1.484375 2.69140625 C0.25460937 2.34916016 0.25460937 2.34916016 -1 2 C-0.67 1.34 -0.34 0.68 0 0 Z " fill="#F0F0F0" transform="translate(567,177)"/>
<path d="M0 0 C0 0.66 0 1.32 0 2 C-5.33333333 4.66666667 -10.66666667 7.33333333 -16 10 C-14.9383717 6.94781864 -14.04970979 6.03078618 -11.25 4.296875 C-10.1775 3.78640625 -9.105 3.2759375 -8 2.75 C-6.9275 2.22921875 -5.855 1.7084375 -4.75 1.171875 C-2 0 -2 0 0 0 Z " fill="#F8F8F8" transform="translate(300,12)"/>
<path d="M0 0 C2.9746228 2.82984027 5.39997658 5.76065023 7.75 9.125 C8.67039062 10.42824219 8.67039062 10.42824219 9.609375 11.7578125 C11 14 11 14 11 16 C6.9635026 14.65450087 6.13013572 12.64577995 3.8125 9.125 C3.09707031 8.05507812 2.38164062 6.98515625 1.64453125 5.8828125 C0 3 0 3 0 0 Z " fill="#EEEEEE" transform="translate(24,246)"/>
<path d="M0 0 C1.07765625 0.11988281 2.1553125 0.23976563 3.265625 0.36328125 C4.08546875 0.47027344 4.9053125 0.57726562 5.75 0.6875 C5.75 1.0175 5.75 1.3475 5.75 1.6875 C5.00234375 1.72488281 4.2546875 1.76226562 3.484375 1.80078125 C2.49953125 1.86652344 1.5146875 1.93226562 0.5 2 C-0.47453125 2.05800781 -1.4490625 2.11601563 -2.453125 2.17578125 C-5.56740817 2.74557328 -6.95286309 3.54791009 -9.25 5.6875 C-9.91 6.6775 -10.57 7.6675 -11.25 8.6875 C-10.76408776 3.2209873 -10.76408776 3.2209873 -8.59375 0.96875 C-5.47163824 -0.73800443 -3.50226685 -0.4187493 0 0 Z " fill="#E4E4E4" transform="translate(552.25,81.3125)"/>
<path d="M0 0 C0 4.13997696 -2.16832917 6.45607031 -4.5 9.6875 C-4.92925781 10.29400391 -5.35851562 10.90050781 -5.80078125 11.52539062 C-6.86093138 13.02138026 -7.92965571 14.511287 -9 16 C-9.66 15.34 -10.32 14.68 -11 14 C-9.73253547 12.2267539 -8.46089765 10.45649025 -7.1875 8.6875 C-6.47980469 7.70136719 -5.77210937 6.71523438 -5.04296875 5.69921875 C-3.45369163 3.59942813 -1.92542371 1.77965031 0 0 Z " fill="#EFEFEF" transform="translate(37,55)"/>
<path d="M0 0 C4.88049925 3.9419417 9.0580583 8.11950075 13 13 C8.752808 12.52267796 6.98278704 10.1748408 4.25 7.0625 C3.45078125 6.16660156 2.6515625 5.27070313 1.828125 4.34765625 C0 2 0 2 0 0 Z " fill="#E2E2E2" transform="translate(35,262)"/>
<path d="M0 0 C2.39614126 -0.05425226 4.79103853 -0.09379027 7.1875 -0.125 C8.19780273 -0.15013672 8.19780273 -0.15013672 9.22851562 -0.17578125 C13.28807807 -0.21538674 16.34998815 0.19979998 20 2 C20 2.33 20 2.66 20 3 C13.30992818 2.47594437 6.6512513 1.89536075 0 1 C0 0.67 0 0.34 0 0 Z " fill="#F9F9F9" transform="translate(550,81)"/>
<path d="M0 0 C2.18073757 2.18073757 2.60470603 3.4173918 3.5 6.3125 C4.54560175 9.60322631 5.66352271 12.81301569 7 16 C4 15 4 15 2.83203125 12.890625 C2.49558594 12.01921875 2.15914063 11.1478125 1.8125 10.25 C1.46832031 9.38890625 1.12414062 8.5278125 0.76953125 7.640625 C-0.01419245 4.95129902 -0.14520761 2.78398044 0 0 Z " fill="#F4F5F5" transform="translate(475,257)"/>
<path d="M0 0 C2 2 2 2 2.9375 5.3125 C3.82228763 8.97684037 3.82228763 8.97684037 5.6875 11.8125 C6.3371875 12.8953125 6.3371875 12.8953125 7 14 C6.67 14.66 6.34 15.32 6 16 C1.47303026 10.71853531 -0.32594963 7.00791703 0 0 Z " fill="#F3F3F3" transform="translate(764,162)"/>
<path d="M0 0 C1.99609375 0.0859375 1.99609375 0.0859375 4.4375 0.375 C5.64212891 0.51035156 5.64212891 0.51035156 6.87109375 0.6484375 C9 1 9 1 11 2 C11 2.66 11 3.32 11 4 C9.56163249 3.88541307 8.12429034 3.75790884 6.6875 3.625 C5.88699219 3.55539062 5.08648437 3.48578125 4.26171875 3.4140625 C2 3 2 3 -1 1 C-0.67 0.67 -0.34 0.34 0 0 Z " fill="#E6E6E6" transform="translate(303,285)"/>
<path d="M0 0 C0.89203125 0.00902344 1.7840625 0.01804688 2.703125 0.02734375 C3.37859375 0.03894531 4.0540625 0.05054688 4.75 0.0625 C4.75 0.3925 4.75 0.7225 4.75 1.0625 C3.91855469 1.17207031 3.08710938 1.28164062 2.23046875 1.39453125 C1.14378906 1.55308594 0.05710937 1.71164063 -1.0625 1.875 C-2.14144531 2.02582031 -3.22039062 2.17664063 -4.33203125 2.33203125 C-7.31440991 3.07862403 -8.39223479 3.68325684 -10.25 6.0625 C-9.92 4.4125 -9.59 2.7625 -9.25 1.0625 C-6.09493858 0.12630187 -3.28413498 -0.0432123 0 0 Z " fill="#DDDEDE" transform="translate(382.25,224.9375)"/>
<path d="M0 0 C0.99 0.495 0.99 0.495 2 1 C3.2935896 5.63536273 2.78949129 8.57890387 1 13 C0.67 13 0.34 13 0 13 C0 8.71 0 4.42 0 0 Z " fill="#DFDFDF" transform="translate(594,197)"/>
<path d="M0 0 C2.97 0.33 5.94 0.66 9 1 C9.33 1.99 9.66 2.98 10 4 C2.25 3.125 2.25 3.125 0 2 C0 1.34 0 0.68 0 0 Z " fill="#EBEBEB" transform="translate(820,109)"/>
<path d="M0 0 C0.66 0.33 1.32 0.66 2 1 C2.59355614 3.64860427 2.74209269 6.29197322 3 9 C1 7 1 7 0 4 C-1.32 4.33 -2.64 4.66 -4 5 C-2.68 3.35 -1.36 1.7 0 0 Z " fill="#EBEBEB" transform="translate(262,263)"/>
<path d="M0 0 C0 0.66 0 1.32 0 2 C-1.96875 3.5078125 -1.96875 3.5078125 -4.5 5.125 C-5.3353125 5.66382813 -6.170625 6.20265625 -7.03125 6.7578125 C-7.6809375 7.16773438 -8.330625 7.57765625 -9 8 C-9 7.01 -9 6.02 -9 5 C-7.5390625 3.61328125 -7.5390625 3.61328125 -5.625 2.3125 C-4.68527344 1.65701172 -4.68527344 1.65701172 -3.7265625 0.98828125 C-2 0 -2 0 0 0 Z " fill="#EBEBEC" transform="translate(629,140)"/>
<path d="M0 0 C3.96 1.32 7.92 2.64 12 4 C12 4.33 12 4.66 12 5 C10.56163249 4.88541307 9.12429034 4.75790884 7.6875 4.625 C6.88699219 4.55539062 6.08648437 4.48578125 5.26171875 4.4140625 C3 4 3 4 0 2 C0 1.34 0 0.68 0 0 Z " fill="#F6F6F6" transform="translate(491,280)"/>
<path d="M0 0 C3.95820859 0.56545837 6.6659053 1.80902348 10 4 C5.82412255 5.39195915 3.86525224 3.82323219 0 2 C0 1.34 0 0.68 0 0 Z " fill="#F5F6F6" transform="translate(830,17)"/>
<path d="M0 0 C0.99 0.33 1.98 0.66 3 1 C-1.455 3.97 -1.455 3.97 -6 7 C-6 6.01 -6 5.02 -6 4 C-3.1875 1.75 -3.1875 1.75 0 0 Z " fill="#EDEEEE" transform="translate(628,268)"/>
<path d="M0 0 C0.33 0.66 0.66 1.32 1 2 C-4.5 5.125 -4.5 5.125 -9 4 C-6.03 2.68 -3.06 1.36 0 0 Z " fill="#F6F6F6" transform="translate(203,280)"/>
<path d="M0 0 C2.56616632 3.84924948 2.55097676 6.4349304 3 11 C0.24438617 8.96324195 -0.03270868 7.84190804 -0.75 4.375 C-0.8325 3.26125 -0.915 2.1475 -1 1 C-0.67 0.67 -0.34 0.34 0 0 Z " fill="#DADADA" transform="translate(646,80)"/>
<path d="M0 0 C-1.39332574 3.36720387 -2.9789286 4.9859524 -6 7 C-6 4 -6 4 -4.125 1.8125 C-2 0 -2 0 0 0 Z " fill="#DEDEDE" transform="translate(284,21)"/>
<path d="M0 0 C0.33 0.99 0.66 1.98 1 3 C-0.9375 5.6875 -0.9375 5.6875 -3 8 C-3.99 7.67 -4.98 7.34 -6 7 C-4.02 4.69 -2.04 2.38 0 0 Z " fill="#E9E9E9" transform="translate(54,65)"/>
</svg>
